<?xml version="1.0" standalone="no"?>
<!DOCTYPE svg PUBLIC "-//W3C//DTD SVG 20010904//EN"
 "http://www.w3.org/TR/2001/REC-SVG-20010904/DTD/svg10.dtd">
<svg version="1.0" xmlns="http://www.w3.org/2000/svg"
 width="300.000000pt" height="339.000000pt" viewBox="0 0 300.000000 339.000000"
 preserveAspectRatio="xMidYMid meet">
<metadata>
Created by potrace 1.10, written by Peter Selinger 2001-2011
</metadata>
<g transform="translate(0.000000,339.000000) scale(0.050000,-0.050000)"
fill="#000000" stroke="none">
<path d="M1820 6338 c0 -49 65 -154 111 -178 67 -36 64 -41 -69 -117 -205
-117 -331 -263 -334 -388 -3 -69 -25 -151 -65 -239 -201 -444 -251 -808 -191
-1391 10 -99 8 -106 -41 -124 -63 -24 -65 -76 -21 -442 39 -321 65 -450 109
-549 20 -44 47 -161 61 -260 55 -390 667 -1316 927 -1402 180 -60 582 -31 717
52 191 118 561 431 809 684 266 272 248 239 335 624 27 118 52 217 55 219 163
96 313 291 364 473 83 297 127 797 73 830 -11 7 -20 55 -20 107 0 122 -72 820
-98 957 -98 504 -995 1094 -1652 1087 -88 -1 -226 4 -306 11 -194 17 -436 -68
-279 -98 25 -5 6 -5 -41 0 -127 13 -269 59 -352 116 -83 56 -92 59 -92 28z
m502 -197 c235 -34 588 -135 803 -230 160 -70 -91 139 -310 259 -164 90 -204
84 -116 -16 63 -71 61 -101 -2 -49 -33 27 -117 144 -117 163 0 59 323 -96 570
-274 l160 -116 -105 98 c-58 53 -159 128 -226 166 -206 117 -209 122 -48 110
300 -24 696 -173 989 -372 193 -131 566 -500 536 -530 -22 -23 -156 34 -156
67 0 58 -489 503 -553 503 -19 0 -53 15 -75 34 -23 19 66 -78 199 -215 320
-331 324 -336 262 -324 -28 5 -75 45 -110 94 -100 139 -446 401 -697 528 -133
68 -145 50 -18 -27 187 -112 312 -209 477 -368 155 -149 201 -216 103 -153
-79 52 -287 125 -426 151 -90 16 -150 42 -218 94 -110 85 -305 180 -404 198
-67 12 -64 8 50 -69 66 -44 152 -108 190 -141 l70 -60 -87 -1 c-77 -1 -100 11
-193 95 -146 134 -348 235 -609 303 -228 60 -346 116 -382 182 -18 34 -9 32
78 -11 67 -34 182 -62 365 -89z m-108 -190 c127 -58 346 -193 346 -214 0 -7
-55 4 -123 26 -161 50 -491 85 -664 70 -156 -13 -156 -1 7 121 111 83 247 82
434 -3z m351 -66 c134 -69 315 -211 315 -247 0 -40 -49 -13 -163 90 -66 60
-180 141 -253 181 -168 92 -82 71 101 -24z m-265 -135 c71 -17 209 -64 306
-102 175 -70 178 -71 313 -47 274 49 631 -2 912 -130 l142 -65 110 -298 c61
-164 144 -406 186 -538 l75 -240 -82 -493 c-78 -472 -80 -496 -50 -570 l32
-77 -62 59 c-34 32 -62 49 -62 38 0 -12 17 -36 38 -55 51 -46 90 -143 74 -185
-11 -29 -24 -24 -83 34 -87 85 -88 69 -2 -40 47 -59 64 -99 58 -133 -9 -45
-13 -43 -78 42 -113 148 -114 120 -2 -46 46 -68 54 -96 41 -136 -17 -50 -19
-49 -94 60 -42 62 -84 112 -94 112 -9 0 24 -58 74 -130 85 -121 90 -135 77
-221 -16 -108 -30 -99 -76 54 -19 63 -52 135 -73 160 -40 47 -40 46 0 -45 57
-133 104 -354 89 -421 -13 -63 -49 -78 -49 -21 0 55 -97 360 -99 310 0 -24 21
-125 47 -224 27 -100 42 -186 33 -191 -8 -6 -37 69 -63 164 -26 96 -50 159
-54 141 -4 -19 12 -103 35 -186 65 -236 51 -251 -67 -69 -99 154 -122 138 -25
-19 81 -131 85 -147 46 -180 -26 -21 -57 14 -188 216 -3 5 -10 4 -15 -2 -6 -5
26 -65 71 -133 77 -116 87 -163 33 -163 -13 1 -59 60 -101 132 -42 72 -81 126
-87 121 -6 -6 27 -71 73 -144 l84 -133 -45 -48 -44 -47 -52 151 c-28 83 -54
141 -59 128 -4 -14 13 -86 39 -162 l47 -138 -42 -42 -43 -43 -13 68 c-34 175
-58 265 -66 242 -4 -13 6 -93 24 -177 29 -144 29 -155 -4 -179 -32 -24 -38
-12 -69 138 -35 165 -37 117 -6 -137 9 -80 9 -80 -15 -20 -45 108 -136 281
-127 240 5 -22 32 -100 60 -173 69 -183 28 -233 -54 -65 -30 60 -63 105 -74
98 -11 -7 -21 4 -22 24 -1 22 -5 26 -11 11 -6 -14 9 -90 33 -168 38 -127 40
-146 13 -173 -27 -26 -32 -21 -50 48 -68 257 -79 293 -80 248 0 -27 16 -113
36 -190 31 -115 33 -145 11 -167 -31 -33 -40 -9 -60 162 -7 63 -21 120 -31
126 -24 14 -24 3 3 -180 19 -123 18 -157 -5 -184 -23 -29 -28 -8 -38 155 l-11
188 -4 -194 c-4 -176 -8 -194 -46 -206 -56 -19 -56 -20 -37 160 9 88 17 192
16 230 l0 70 -19 -60 c-10 -33 -24 -138 -31 -233 -11 -144 -19 -175 -49 -183
-52 -14 -52 -11 -25 170 14 91 25 189 25 216 -1 95 -32 -19 -58 -215 -21 -150
-32 -185 -59 -185 -26 0 -32 14 -25 60 11 76 -15 360 -33 360 -7 0 -10 -94 -7
-210 7 -211 -21 -290 -47 -135 -28 175 -57 289 -81 321 -20 27 -20 10 1 -76
43 -171 58 -320 33 -320 -23 0 -33 37 -52 190 -15 117 -49 258 -60 246 -5 -4
5 -88 21 -187 34 -210 36 -249 11 -249 -11 0 -24 61 -31 135 -22 248 -46 309
-35 90 10 -200 9 -205 -33 -205 -42 0 -43 9 -47 255 l-5 255 -6 -255 -6 -255
-56 29 -56 29 37 206 c20 113 35 229 32 256 -4 28 -24 -56 -45 -185 -21 -129
-45 -235 -54 -235 -32 0 -36 81 -9 212 32 158 58 372 39 329 -7 -16 -32 -128
-55 -249 -42 -217 -43 -219 -75 -170 -31 48 -30 60 14 212 53 183 81 322 61
304 -7 -7 -36 -97 -64 -200 -54 -202 -78 -247 -101 -187 -9 23 10 110 50 226
36 103 61 192 56 197 -12 12 -133 -303 -134 -348 0 -33 -3 -33 -30 3 -16 22
-24 54 -18 70 69 175 105 281 92 273 -9 -6 -38 -65 -64 -131 -27 -67 -55 -121
-62 -121 -41 0 -31 52 34 181 39 79 67 148 60 154 -6 6 -41 -53 -77 -132 -37
-79 -73 -138 -80 -130 -26 26 -14 59 86 233 55 96 100 186 99 199 0 14 -33
-32 -72 -101 -90 -158 -102 -149 -36 25 28 75 47 140 42 145 -8 7 -105 -233
-142 -349 -15 -48 -51 -62 -51 -20 0 14 14 75 31 135 17 61 35 133 41 160 5
28 14 66 20 85 19 63 -15 84 -54 33 -46 -60 -50 -15 -5 53 18 28 28 54 23 60
-5 5 -21 -14 -36 -41 -15 -28 -34 -50 -43 -50 -27 0 -20 47 15 97 18 25 27 51
21 57 -6 6 -22 -12 -35 -41 -50 -110 -97 -18 -50 96 53 125 15 76 -72 -94 -51
-100 -87 -152 -91 -131 -4 19 2 51 13 72 32 60 102 244 93 244 -4 0 -38 -65
-74 -144 l-66 -143 -17 84 c-15 75 -9 96 50 198 68 118 92 223 42 182 -28 -23
-36 2 -11 35 8 10 -18 -17 -59 -61 -91 -99 -98 -79 -14 42 34 49 58 94 52 99
-5 6 -31 -24 -56 -66 -38 -61 -49 -68 -55 -39 -4 21 12 63 35 95 53 72 54 104
1 40 -22 -26 -46 -42 -52 -35 -7 6 -1 26 13 43 20 24 20 30 0 30 -19 0 -22 44
-12 185 7 102 13 199 14 215 1 17 -8 148 -20 292 -20 238 -19 271 15 370 32
93 36 151 28 406 l-10 298 107 266 107 267 250 59 c354 83 532 107 646 85 55
-10 100 -10 107 0 47 77 -393 206 -812 238 -201 15 -197 16 80 9 175 -5 341
-20 420 -40z m-370 -152 c-77 -6 -192 -19 -255 -27 -98 -13 -115 -11 -115 16
0 27 36 33 235 37 267 7 344 -8 135 -26z m2307 -230 c266 -66 252 -48 292
-358 18 -143 36 -276 40 -295 4 -19 1 -35 -7 -35 -12 0 -85 246 -144 485 -21
87 -59 122 -86 78 -8 -13 18 -151 60 -313 25 -98 -42 46 -93 199 -75 226 -141
203 -80 -29 10 -38 23 -119 30 -180 l12 -110 -58 140 c-32 77 -90 210 -130
296 -40 86 -73 160 -73 165 0 14 13 12 237 -43z m410 -1283 c43 -69 -119 -873
-199 -988 -52 -75 -188 -203 -202 -190 -3 3 31 172 75 374 45 203 101 465 124
583 30 151 52 217 74 223 54 15 118 14 128 -2z m-3316 -400 c11 -96 15 -301 9
-455 l-10 -280 -25 120 c-85 416 -103 790 -39 790 43 0 47 -11 65 -175z m2953
-373 c-11 -21 -64 99 -63 145 0 18 17 -3 37 -47 20 -44 32 -88 26 -98z m-2814
-472 c-20 -22 -32 -45 -26 -51 6 -6 26 13 45 42 64 98 53 35 -13 -71 -35 -57
-68 -93 -73 -80 -4 13 3 34 15 46 27 27 29 61 2 44 -32 -20 -23 9 22 73 23 33
47 54 53 48 6 -6 -5 -29 -25 -51z m174 -386 c29 -62 29 -70 -15 -155 -36 -70
-49 -82 -59 -55 -9 21 4 63 30 107 25 39 40 76 34 81 -5 6 -26 -17 -46 -51
-67 -112 -94 -58 -34 68 41 87 51 88 90 5z m42 -220 c-34 -93 -53 -112 -75
-75 -17 26 74 204 93 185 9 -9 1 -59 -18 -110z m64 0 c-4 -13 -18 -63 -30
-112 -16 -61 -29 -81 -44 -66 -24 24 40 229 67 212 8 -5 12 -20 7 -34z m1549
-669 c1 -14 -7 -25 -17 -25 -18 0 -83 167 -81 209 1 28 97 -151 98 -184z"/>
<path d="M3502 4386 c-15 -17 -45 -25 -69 -18 -101 25 -344 16 -403 -16 -75
-40 -92 -40 -77 -2 23 61 -13 28 -51 -46 -59 -116 -38 -129 149 -93 237 46
542 47 625 3 36 -20 74 -30 85 -23 12 7 35 1 52 -14 39 -32 127 -45 127 -18 0
11 14 15 30 8 77 -29 11 53 -130 163 -42 33 -41 29 10 -29 l60 -68 -105 75
c-59 42 -114 69 -128 60 -14 -9 -18 -6 -9 9 8 13 7 24 -2 24 -9 1 -43 4 -76 8
-34 3 -72 -7 -88 -23z"/>
<path d="M1890 4296 c-44 -23 -102 -43 -130 -44 -27 -2 -61 -10 -75 -19 -14
-8 -25 -9 -25 -1 0 8 -16 0 -35 -17 -19 -18 -43 -31 -52 -31 -43 5 -148 -104
-148 -153 0 -63 10 -63 94 -2 146 108 492 178 737 150 148 -18 170 4 86 86
-44 43 -70 56 -76 40 -5 -14 -20 -19 -32 -11 -13 8 -59 15 -104 17 -44 2 -98
8 -120 15 -23 7 -74 -6 -120 -30z"/>
<path d="M2380 4102 c0 -9 14 -51 32 -93 42 -101 12 -322 -83 -602 -38 -112
-69 -226 -69 -254 0 -73 119 -193 192 -192 55 0 56 2 19 30 -21 16 -50 29 -63
29 -94 0 -130 165 -68 306 110 247 155 608 92 729 -33 64 -52 82 -52 47z"/>
<path d="M3143 4042 c-102 -36 -182 -90 -161 -111 6 -5 64 12 129 39 182 75
463 44 550 -61 13 -16 34 -29 46 -28 52 2 -142 142 -234 169 -130 39 -199 37
-330 -8z"/>
<path d="M1864 4010 c-95 -29 -218 -106 -233 -145 -13 -34 19 -32 48 4 90 109
384 136 571 53 108 -48 144 -38 73 20 -107 86 -307 116 -459 68z"/>
<path d="M3875 3937 c-30 -11 -55 -30 -55 -41 0 -11 14 -15 32 -8 17 7 47 12
66 12 19 0 52 13 73 29 49 37 -23 42 -116 8z"/>
<path d="M3110 3867 c-22 -6 -49 -20 -60 -31 -13 -14 -7 -17 20 -9 22 6 90 16
151 24 100 11 156 5 424 -50 41 -9 75 -9 75 -2 0 47 -487 101 -610 68z"/>
<path d="M2010 3844 c-93 -9 -270 -63 -270 -82 0 -10 38 -4 85 13 47 17 146
30 220 30 74 -1 135 6 135 15 0 19 -89 32 -170 24z"/>
<path d="M1480 3820 c0 -11 34 -19 75 -19 60 2 67 5 35 19 -56 24 -110 24
-110 0z"/>
<path d="M1515 3745 c-52 -33 -72 -65 -40 -65 8 0 42 22 75 49 69 57 47 66
-35 16z"/>
<path d="M3380 3074 c0 -9 45 -75 100 -148 113 -149 115 -163 61 -351 -46
-163 -28 -176 34 -25 79 195 66 273 -75 417 -65 68 -119 116 -120 107z"/>
<path d="M1897 2945 c-150 -154 -163 -203 -97 -348 42 -93 52 -61 21 71 -24
102 0 160 114 277 52 52 84 95 73 95 -11 0 -61 -43 -111 -95z"/>
<path d="M2705 3027 c-58 -24 -17 -37 95 -30 66 4 120 15 120 25 0 19 -171 23
-215 5z"/>
<path d="M3829 2785 c-76 -225 -76 -225 -52 -225 11 0 44 79 73 175 29 96 56
186 60 200 5 14 2 25 -7 25 -8 0 -41 -79 -74 -175z"/>
<path d="M2410 2840 c-44 -54 -83 -90 -87 -79 -3 11 -15 14 -25 8 -32 -20 -19
12 36 87 l54 74 -59 -54 c-33 -30 -76 -84 -97 -120 l-39 -66 44 38 c26 23 43
29 43 14 0 -13 8 -19 18 -13 10 6 22 1 26 -11 4 -12 50 33 103 100 114 145 99
164 -17 22z"/>
<path d="M2880 2934 c0 -3 64 -59 143 -124 170 -140 177 -119 9 27 -102 89
-152 121 -152 97z"/>
<path d="M1992 2805 c-118 -116 -125 -113 -36 15 42 61 38 59 -34 -18 -91 -97
-98 -115 -47 -116 41 -1 104 53 189 159 82 104 65 94 -72 -40z"/>
<path d="M2137 2885 c-17 -19 -64 -80 -106 -135 l-75 -100 102 109 c56 60 102
97 102 84 0 -34 35 -10 63 43 l23 44 -46 -40 c-41 -35 -45 -35 -34 -5 7 19 10
35 6 35 -3 0 -19 -16 -35 -35z"/>
<path d="M2215 2825 c-91 -127 -111 -170 -41 -92 58 66 135 187 119 187 -5 0
-40 -43 -78 -95z"/>
<path d="M2794 2852 c61 -75 166 -163 166 -141 0 16 -196 209 -212 209 -6 0
14 -31 46 -68z"/>
<path d="M2910 2829 c55 -50 118 -99 140 -111 22 -11 -14 30 -80 90 -66 61
-129 111 -140 111 -11 0 25 -41 80 -90z"/>
<path d="M3088 2830 c117 -110 213 -169 134 -83 -64 70 -31 68 47 -2 34 -30
12 -3 -48 60 -60 63 -118 115 -129 115 -11 0 6 -27 38 -60 32 -33 48 -60 37
-60 -12 0 -38 19 -59 42 -21 23 -56 50 -78 61 -22 10 4 -22 58 -73z"/>
<path d="M2660 2887 c0 -31 160 -193 176 -178 6 7 -30 55 -82 106 -52 52 -94
84 -94 72z"/>
<path d="M3303 2790 c90 -75 188 -131 126 -72 -66 63 -196 162 -213 162 -11 0
28 -40 87 -90z"/>
<path d="M3340 2864 c0 -20 141 -124 169 -124 9 0 5 14 -9 30 -22 26 -20 29
10 17 26 -10 32 -7 21 11 -8 14 -28 20 -45 13 -16 -6 -56 8 -88 30 -32 23 -58
33 -58 23z"/>
<path d="M1514 2722 c-41 -75 -74 -145 -74 -154 1 -10 38 48 83 128 45 81 78
150 73 155 -4 4 -41 -54 -82 -129z"/>
<path d="M2117 2785 c-65 -79 -81 -105 -63 -105 22 0 113 119 101 132 -5 4
-22 -8 -38 -27z"/>
<path d="M3317 2660 c-22 -64 -618 -107 -987 -73 -431 41 -434 41 -370 3 442
-258 807 -285 1218 -89 127 60 173 74 184 55 27 -42 44 35 19 82 -24 45 -53
55 -64 22z m-687 -138 c110 0 272 12 360 28 312 57 305 28 -20 -81 -253 -84
-305 -84 -634 4 -244 66 -280 110 -59 74 84 -14 243 -25 353 -25z"/>
<path d="M3082 2292 c-225 -146 -598 -137 -835 18 -52 34 -127 40 -127 10 0
-11 14 -20 31 -20 16 0 82 -26 145 -57 231 -116 523 -135 699 -46 47 24 121
61 166 84 44 22 75 49 69 60 -19 29 -33 24 -148 -49z"/>
<path d="M2575 2010 c-23 -124 -19 -249 7 -205 11 19 17 91 14 160 -6 119 -7
121 -21 45z"/>
<path d="M2511 2001 c-34 -64 -42 -121 -14 -90 20 22 65 149 52 149 -4 0 -22
-27 -38 -59z"/>
<path d="M2638 2045 c-15 -100 -15 -154 1 -182 15 -24 20 -2 20 82 1 95 -13
158 -21 100z"/>
</g>
</svg>
