<?xml version="1.0" standalone="no"?>
<!DOCTYPE svg PUBLIC "-//W3C//DTD SVG 20010904//EN"
 "http://www.w3.org/TR/2001/REC-SVG-20010904/DTD/svg10.dtd">
<svg version="1.0" xmlns="http://www.w3.org/2000/svg"
 width="300.000000pt" height="318.000000pt" viewBox="0 0 300.000000 318.000000"
 preserveAspectRatio="xMidYMid meet">
<metadata>
Created by potrace 1.10, written by Peter Selinger 2001-2011
</metadata>
<g transform="translate(0.000000,318.000000) scale(0.100000,-0.100000)"
fill="#000000" stroke="none">
<path d="M1231 2950 c-49 -22 -65 -25 -55 -9 7 11 -48 -21 -136 -82 -30 -20
-92 -75 -137 -122 -78 -81 -81 -86 -88 -142 -8 -64 -2 -163 17 -273 10 -62 10
-73 -4 -89 -26 -30 -41 -91 -34 -138 14 -91 78 -145 173 -145 l52 0 6 -47 c8
-64 29 -108 60 -129 26 -17 34 -52 13 -59 -108 -37 -137 -52 -170 -86 -52 -55
-61 -95 -36 -161 11 -29 27 -61 35 -71 20 -21 21 -20 -47 -42 -151 -48 -277
-154 -343 -288 l-37 -77 -43 0 c-65 0 -70 -7 -46 -69 11 -30 18 -55 16 -57 -2
-3 -41 -6 -87 -7 -81 -3 -84 -4 -112 -38 -55 -65 -61 -171 -18 -293 18 -51 20
-72 14 -145 -3 -47 -13 -106 -20 -131 -28 -93 -14 -128 86 -205 63 -48 80 -54
100 -30 10 12 5 44 -30 170 -24 85 -41 158 -38 161 4 3 248 -19 545 -50 296
-30 593 -60 660 -67 l121 -12 17 -96 c18 -100 28 -122 45 -105 7 7 6 33 -4 80
-26 126 -26 125 18 141 70 24 85 8 121 -129 15 -58 27 -84 38 -86 23 -5 21 10
-8 112 -30 105 -48 134 -87 144 -29 7 0 26 443 298 308 189 475 286 477 277 3
-12 -20 -231 -34 -323 -5 -34 -6 -35 -52 -35 -27 0 -64 -9 -87 -20 -35 -17
-40 -24 -41 -54 0 -21 -6 -36 -15 -39 -48 -15 -70 -88 -29 -99 13 -3 20 -14
20 -29 0 -13 8 -27 18 -33 11 -6 17 -22 17 -43 0 -30 5 -35 58 -62 52 -26 57
-31 57 -62 0 -35 22 -48 33 -20 5 12 12 13 35 4 103 -39 177 183 117 352 -9
24 -33 65 -55 91 l-39 46 21 186 c11 102 18 193 14 202 -5 15 -21 17 -128 14
l-121 -4 -13 62 c-18 91 -78 197 -155 275 -80 82 -216 153 -314 166 l-60 7 3
81 c3 61 0 89 -13 113 -20 40 -125 109 -178 118 -36 5 -38 8 -33 32 3 14 12
60 21 101 8 41 17 85 20 97 3 14 15 24 37 28 58 13 85 33 102 75 32 81 14 172
-41 201 -14 7 -21 19 -18 27 3 7 5 29 5 48 0 20 4 33 8 30 13 -8 56 165 56
224 0 71 -18 123 -58 169 -37 42 -71 93 -69 102 3 8 -104 36 -174 45 -29 3
-53 11 -53 16 0 5 -19 6 -44 3 -27 -4 -66 -1 -105 9 -83 21 -136 20 -190 -4z
m291 -332 c17 -23 63 -39 122 -44 59 -4 91 -30 108 -86 6 -21 17 -43 25 -49 9
-8 13 -39 12 -108 0 -66 -3 -89 -9 -74 -6 15 -21 24 -46 29 -21 4 -53 17 -71
30 -35 24 -113 41 -132 29 -23 -14 -9 -24 47 -31 l57 -8 -60 -11 c-33 -6 -70
-17 -82 -23 -33 -18 -42 -15 -49 16 -12 53 -16 62 -24 57 -4 -3 -4 -21 0 -41
11 -46 -4 -52 -72 -30 -28 9 -60 16 -72 16 -16 0 -18 2 -7 9 19 12 6 41 -18
41 -11 0 -49 -16 -85 -35 -37 -19 -80 -35 -96 -35 -29 0 -30 1 -30 49 0 38 6
56 25 79 32 39 45 74 45 127 0 49 14 68 62 84 99 32 328 38 350 9z m43 -8 c3
-5 2 -10 -4 -10 -5 0 -13 5 -16 10 -3 6 -2 10 4 10 5 0 13 -4 16 -10z m30 -10
c3 -5 4 -10 1 -10 -3 0 -8 5 -11 10 -3 6 -4 10 -1 10 3 0 8 -4 11 -10z m32
-17 c-4 -3 -10 -3 -14 0 -3 4 0 7 7 7 7 0 10 -3 7 -7z m-667 -42 c0 -5 -7 -11
-14 -14 -10 -4 -13 -1 -9 9 6 15 23 19 23 5z m770 -276 c6 -4 10 -34 10 -68 0
-67 -16 -102 -54 -117 -12 -5 -15 -9 -6 -9 36 -1 70 48 70 102 0 19 7 40 15
47 13 11 15 8 15 -21 0 -117 -66 -381 -113 -450 -12 -19 -43 -45 -67 -59 -40
-22 -57 -24 -155 -24 -131 0 -164 11 -283 91 -92 62 -108 81 -126 149 -12 47
-12 47 -74 64 -100 27 -140 83 -129 177 7 62 28 83 74 72 45 -10 75 -45 103
-121 5 -16 16 -28 24 -28 12 0 16 16 18 68 3 56 5 62 11 37 17 -61 30 -86 51
-97 20 -10 20 -9 -2 15 -27 29 -45 96 -36 132 5 20 16 26 62 36 64 13 177 8
210 -10 43 -23 20 -143 -33 -171 -14 -7 -23 -15 -20 -18 2 -3 15 2 28 11 32
21 57 76 57 127 0 39 1 41 27 38 25 -3 28 -9 39 -63 7 -33 15 -84 19 -114 l7
-54 -56 6 c-31 3 -56 2 -56 -3 0 -11 37 -20 82 -20 48 0 51 13 33 125 -8 50
-15 95 -15 100 0 15 58 47 100 56 37 8 154 4 170 -6z m155 -51 c30 -63 -2
-157 -65 -189 -18 -9 -33 -15 -35 -13 -1 2 4 46 12 98 11 68 21 102 36 118 27
29 32 28 52 -14z m-696 -523 c57 -53 131 -75 256 -74 76 0 123 5 154 17 24 9
45 16 47 16 2 0 1 -29 -3 -64 -4 -45 -2 -65 7 -71 7 -4 16 -2 20 5 6 9 14 8
34 -5 14 -10 26 -20 26 -24 0 -24 -70 -68 -152 -96 l-93 -33 -43 30 c-26 18
-87 42 -150 60 -59 16 -111 33 -115 37 -4 4 -10 39 -11 77 -2 38 -7 88 -11
112 -4 23 -5 42 -2 42 3 0 19 -13 36 -29z m606 10 c75 -35 125 -78 125 -109 0
-72 -128 -187 -230 -206 -30 -6 -32 -5 -15 5 45 27 85 73 85 100 0 27 -42 69
-69 69 -15 0 -14 115 1 140 16 25 51 25 103 1z m-671 -62 c4 -22 4 -56 0 -74
-3 -19 -1 -49 6 -69 12 -37 34 -47 198 -92 60 -16 90 -34 58 -34 -50 0 -342
80 -423 116 -63 27 -66 43 -23 102 17 23 31 42 33 42 1 0 29 11 62 25 33 13
65 25 71 25 6 0 14 -18 18 -41z m771 -225 c-17 -29 -25 -55 -22 -71 4 -22 -2
-28 -52 -51 -67 -31 -135 -38 -215 -23 -68 13 -63 10 -68 36 -3 17 4 20 58 27
128 14 214 51 279 118 49 51 60 32 20 -36z m-809 -9 c109 -33 273 -69 367 -80
35 -5 47 -10 47 -23 0 -16 -14 -16 -157 -11 -189 7 -290 23 -298 48 -3 9 -28
34 -55 55 -49 38 -66 64 -32 51 9 -3 67 -22 128 -40z m958 -20 c154 -40 288
-145 358 -280 28 -55 58 -147 58 -180 0 -2 -17 -7 -37 -11 -43 -7 -184 -41
-205 -49 -10 -4 -21 13 -37 52 -78 193 -141 279 -246 334 -49 26 -56 38 -25
46 24 6 25 12 5 39 -12 18 -12 24 1 42 18 26 48 28 128 7z m-1033 -65 c6 -16
18 -30 26 -30 9 0 -8 -26 -43 -62 -59 -65 -94 -129 -114 -209 l-12 -46 -41 8
c-23 4 -95 8 -159 9 -137 0 -137 0 -87 87 39 67 121 152 186 190 51 30 187 82
216 82 11 1 22 -10 28 -29z m215 -60 c54 -5 141 -10 191 -10 l93 0 -7 -75 c-5
-66 -4 -75 11 -75 9 0 16 7 16 17 0 90 53 -289 69 -497 6 -74 14 -168 17 -207
3 -40 3 -73 1 -73 -3 0 -27 39 -52 86 -79 144 -180 287 -249 352 -79 73 -194
133 -319 165 l-89 22 6 37 c11 68 52 143 116 211 43 47 68 66 80 62 9 -3 61
-10 116 -15z m675 -31 c105 -56 135 -90 198 -223 32 -66 61 -128 64 -137 4
-12 -13 -23 -74 -48 -108 -44 -159 -74 -219 -128 -64 -58 -102 -112 -166 -242
l-51 -103 -7 118 c-10 185 -25 321 -57 552 -17 118 -29 215 -27 217 2 2 37 -1
78 -7 66 -9 82 -8 135 10 33 11 62 20 64 21 2 1 29 -13 62 -30z m-1026 -294
c273 -57 402 -134 525 -310 57 -84 160 -254 160 -267 0 -4 -28 14 -61 41 -118
95 -256 153 -462 192 -93 18 -137 21 -260 17 -136 -5 -174 0 -147 17 6 4 10
17 8 29 -1 13 6 31 16 41 18 18 18 19 -8 42 -15 13 -38 23 -52 23 -21 0 -23 3
-14 19 5 11 10 25 10 31 0 11 -49 35 -93 45 -26 5 -34 16 -51 72 -6 18 -2 22
21 26 59 11 330 -1 408 -18z m1770 -63 c-16 -11 -240 -148 -497 -305 -257
-158 -470 -287 -472 -287 -16 0 70 188 124 273 89 142 219 222 469 289 144 38
191 45 311 47 l95 1 -30 -18z m-2116 -53 c62 -22 6 -63 -71 -53 -49 7 -108
-17 -108 -43 0 -17 10 -16 34 2 24 18 179 21 222 5 49 -19 12 -35 -73 -33 -76
3 -116 -9 -143 -42 -21 -25 -5 -28 31 -6 25 15 51 21 96 21 70 0 93 -6 93 -26
0 -10 -13 -14 -43 -14 -33 0 -55 -8 -85 -30 -23 -17 -42 -36 -42 -44 0 -8 -15
-24 -34 -35 -24 -15 -41 -38 -57 -76 -18 -44 -27 -55 -45 -55 -13 0 -25 -4
-28 -8 -3 -5 16 -84 41 -175 26 -92 43 -170 40 -173 -8 -8 -113 80 -134 113
-15 22 -15 29 2 81 10 33 20 102 22 162 5 91 2 112 -16 158 -23 59 -29 178
-10 215 19 36 51 67 71 67 21 0 22 -4 7 -32 -19 -36 0 -32 36 7 l35 38 64 -7
c35 -3 78 -11 95 -17z m71 -228 c0 -5 -21 -14 -47 -20 -27 -7 -57 -14 -68 -17
-16 -4 -15 0 8 20 20 19 39 26 68 26 21 0 39 -4 39 -9z m455 -40 c114 -23 207
-52 282 -88 54 -25 211 -141 248 -183 l20 -22 -75 7 c-66 6 -936 94 -1097 111
-71 8 -74 13 -43 74 16 32 30 42 77 60 55 20 183 53 248 64 60 9 242 -3 340
-23z m1682 -93 c42 -47 57 -90 60 -183 3 -76 0 -99 -19 -145 -30 -71 -64 -87
-105 -48 -16 14 -54 37 -86 51 -44 20 -58 31 -55 44 5 28 71 29 109 3 16 -12
33 -19 37 -15 12 11 -47 55 -74 55 -36 0 -114 21 -114 31 0 17 46 39 83 39 20
0 54 -7 74 -15 43 -18 43 -18 43 0 0 25 -95 47 -172 39 -38 -4 -68 -3 -68 2 1
21 20 36 65 49 61 19 99 19 134 0 27 -13 41 -11 41 6 0 17 -90 42 -130 35 -36
-6 -40 -4 -40 14 0 36 126 70 145 40 10 -15 35 -12 35 5 0 21 13 19 37 -7z"/>
<path d="M1277 2174 c-3 -3 -3 -12 -1 -19 3 -7 1 -16 -5 -20 -15 -9 -14 -21 5
-40 21 -21 44 -3 44 34 0 35 -25 62 -43 45z"/>
<path d="M1591 2168 c1 -7 -2 -21 -6 -32 -9 -21 5 -51 25 -51 16 0 30 47 23
75 -6 21 -45 29 -42 8z"/>
<path d="M1490 2124 c0 -12 37 -54 47 -54 4 0 -4 12 -18 28 -13 15 -25 29 -26
31 -2 2 -3 0 -3 -5z"/>
<path d="M1558 2063 c7 -3 16 -2 19 1 4 3 -2 6 -13 5 -11 0 -14 -3 -6 -6z"/>
<path d="M1218 2053 c12 -2 32 -2 45 0 12 2 2 4 -23 4 -25 0 -35 -2 -22 -4z"/>
<path d="M1507 1882 c-45 -24 -53 -25 -100 -15 -29 6 -60 14 -69 18 -10 4 -18
3 -18 -3 0 -15 68 -36 120 -36 44 0 130 37 130 56 0 12 -10 9 -63 -20z"/>
<path d="M1945 890 c-33 -33 -63 -60 -67 -60 -4 0 -8 15 -9 33 0 27 -2 29 -9
12 -12 -27 -12 -82 -1 -89 5 -4 15 -4 23 -1 16 6 132 154 126 160 -2 3 -31
-22 -63 -55z"/>
</g>
</svg>
