<?xml version="1.0" standalone="no"?>
<!DOCTYPE svg PUBLIC "-//W3C//DTD SVG 20010904//EN"
 "http://www.w3.org/TR/2001/REC-SVG-20010904/DTD/svg10.dtd">
<svg version="1.0" xmlns="http://www.w3.org/2000/svg"
 width="300.000000pt" height="311.000000pt" viewBox="0 0 300.000000 311.000000"
 preserveAspectRatio="xMidYMid meet">
<metadata>
Created by potrace 1.10, written by Peter Selinger 2001-2011
</metadata>
<g transform="translate(0.000000,311.000000) scale(0.100000,-0.100000)"
fill="#000000" stroke="none">
<path d="M1520 2900 c-19 -5 -78 -9 -130 -8 -90 0 -158 -15 -196 -44 -7 -5
-29 -6 -51 -2 -55 8 -150 -12 -195 -41 -21 -14 -57 -50 -81 -80 -24 -30 -63
-68 -88 -83 -51 -33 -81 -73 -84 -113 -2 -23 -15 -37 -63 -69 -46 -31 -66 -52
-82 -88 -12 -26 -28 -61 -37 -79 -10 -20 -13 -42 -9 -60 4 -15 11 -54 15 -85
5 -31 17 -69 28 -85 11 -15 27 -64 36 -108 9 -46 34 -115 57 -161 34 -68 43
-99 55 -190 8 -60 17 -121 21 -136 5 -27 5 -27 -25 -17 -20 7 -36 7 -48 0 -17
-9 -17 -10 2 -17 11 -3 40 -27 64 -53 42 -44 45 -52 77 -189 43 -180 43 -179
2 -151 -61 41 -99 84 -140 152 -22 38 -42 66 -45 63 -3 -2 7 -41 22 -85 31
-95 81 -157 157 -195 l52 -26 22 -112 c37 -184 63 -239 158 -334 176 -176 250
-210 436 -201 227 11 375 70 507 203 59 59 83 90 83 107 0 19 -16 37 -33 37
-1 0 -35 -31 -75 -70 -132 -126 -296 -198 -477 -207 -127 -7 -186 9 -287 76
-185 124 -227 206 -314 615 -83 396 -97 486 -98 656 -1 142 1 163 28 255 49
174 54 183 109 227 68 53 81 57 216 68 79 6 138 16 186 33 39 14 97 33 130 42
33 9 80 27 104 41 24 13 45 24 47 24 1 0 8 -25 14 -55 18 -86 74 -187 131
-239 63 -57 79 -60 29 -6 -20 22 -49 63 -65 92 l-28 53 66 -71 c45 -49 88 -82
134 -107 86 -45 181 -73 196 -58 7 7 5 12 -9 17 -133 48 -197 87 -275 171 -31
32 -69 84 -84 114 l-27 54 77 -82 c83 -89 201 -183 289 -229 30 -16 60 -40 67
-54 21 -41 30 -157 37 -462 7 -281 12 -321 40 -304 5 3 13 32 16 63 11 90 33
156 70 212 34 51 44 76 107 293 40 138 43 279 9 373 -12 33 -21 72 -21 86 2
53 -85 214 -155 288 -18 20 -50 55 -70 78 -38 45 -94 68 -137 58 -19 -5 -28 1
-51 34 -39 56 -115 125 -167 152 -49 25 -185 36 -249 19z"/>
<path d="M1594 1796 c-49 -22 -61 -89 -23 -127 19 -19 29 -20 93 -15 227 20
200 23 310 -34 105 -54 133 -55 106 -5 -69 129 -358 236 -486 181z"/>
<path d="M1000 1777 c-92 -22 -133 -51 -179 -127 -24 -41 -27 -70 -6 -70 8 0
37 20 65 45 59 52 90 57 180 25 73 -26 96 -25 125 5 30 29 34 84 8 108 -25 22
-126 29 -193 14z"/>
<path d="M1471 1772 c-13 -25 -14 -62 -2 -62 8 0 22 70 15 78 -1 2 -7 -5 -13
-16z"/>
<path d="M1222 1749 c2 -18 9 -34 16 -37 10 -3 13 5 10 29 -2 18 -9 34 -16 37
-10 3 -13 -5 -10 -29z"/>
<path d="M1501 1761 c-15 -27 -14 -63 2 -86 22 -29 35 -10 31 47 -3 56 -16 72
-33 39z"/>
<path d="M1709 1590 c-23 -19 -23 -21 -6 -34 23 -18 22 -47 -3 -53 -14 -4 -20
-14 -20 -33 0 -54 59 -80 93 -42 31 34 18 144 -19 169 -19 12 -24 11 -45 -7z"/>
<path d="M1040 1585 c-10 -13 -10 -19 4 -33 23 -26 20 -41 -10 -52 -22 -9 -25
-14 -19 -43 7 -33 37 -67 61 -67 8 0 23 9 35 21 16 16 20 29 15 51 -3 17 -6
46 -6 64 0 56 -51 93 -80 59z"/>
<path d="M2324 1554 c-18 -14 -18 -15 4 -4 35 17 75 8 90 -20 16 -32 10 -89
-24 -200 -47 -154 -103 -242 -186 -293 -40 -25 -37 -54 7 -63 75 -14 116 24
184 166 91 191 106 380 33 419 -30 16 -85 13 -108 -5z"/>
<path d="M1231 1485 c-54 -185 -74 -342 -47 -364 27 -23 131 -51 187 -51 62 0
158 17 172 30 5 4 6 18 2 30 -7 22 -9 22 -115 15 -60 -3 -134 -3 -164 0 l-56
7 0 75 c0 42 11 132 25 201 14 68 24 126 22 128 -2 3 -14 -29 -26 -71z"/>
<path d="M2284 1528 c-4 -7 -3 -8 4 -4 7 4 12 9 12 12 0 8 -9 4 -16 -8z"/>
<path d="M2262 1498 c-31 -40 -66 -134 -52 -143 5 -3 16 21 25 52 9 32 23 68
31 81 15 24 13 30 -4 10z"/>
<path d="M1077 956 c-4 -9 7 -26 29 -45 78 -69 187 -104 329 -105 99 -1 101 0
200 46 55 25 108 49 118 52 22 7 22 35 1 43 -9 3 -51 -4 -93 -17 -159 -48
-195 -52 -306 -36 -55 8 -132 27 -170 41 -101 38 -102 38 -108 21z"/>
</g>
</svg>
