<?xml version="1.0" standalone="no"?>
<!DOCTYPE svg PUBLIC "-//W3C//DTD SVG 20010904//EN"
 "http://www.w3.org/TR/2001/REC-SVG-20010904/DTD/svg10.dtd">
<svg version="1.0" xmlns="http://www.w3.org/2000/svg"
 width="300.000000pt" height="40.000000pt" viewBox="0 0 300.000000 40.000000"
 preserveAspectRatio="xMidYMid meet">
<metadata>
Created by potrace 1.10, written by Peter Selinger 2001-2011
</metadata>
<g transform="translate(0.000000,40.000000) scale(0.100000,-0.100000)"
fill="#000000" stroke="none">
<path d="M924 329 c-8 -14 21 -43 35 -35 19 12 13 46 -8 46 -11 0 -23 -5 -27
-11z"/>
<path d="M2373 313 c-25 -5 -25 -6 -14 -75 4 -27 5 -48 2 -48 -3 0 -24 27 -46
60 -33 50 -44 60 -65 58 -25 -3 -25 -4 -28 -109 l-3 -107 32 -4 31 -5 -4 59
c-2 32 -2 58 1 58 3 -1 23 -25 44 -55 21 -31 45 -55 55 -55 39 1 42 12 36 123
-4 59 -10 106 -13 106 -3 -1 -16 -4 -28 -6z"/>
<path d="M470 273 c0 -31 2 -32 30 -26 l30 6 0 -87 0 -86 31 0 31 0 -7 85 -7
85 36 0 c34 0 36 2 36 31 l0 30 -90 -3 -90 -3 0 -32z"/>
<path d="M710 301 c-24 -7 -25 -10 -28 -109 l-3 -102 31 0 c27 0 30 3 30 33
l0 32 20 -32 c35 -58 90 -72 90 -23 0 23 -5 30 -19 30 -30 0 -36 19 -12 41 22
21 28 68 11 99 -5 10 -24 23 -41 29 -35 12 -42 12 -79 2z m80 -76 c0 -21 -31
-41 -44 -27 -11 10 -6 50 7 55 21 7 37 -4 37 -28z"/>
<path d="M1327 266 l-39 -41 7 38 c6 36 5 37 -25 37 l-30 0 0 -105 0 -105 30
0 c28 0 30 3 30 35 0 45 12 44 47 -5 15 -22 30 -40 33 -39 3 0 13 11 24 25
l18 26 -36 37 -36 37 25 24 c30 28 30 32 8 57 -18 20 -19 19 -56 -21z"/>
<path d="M1863 303 c-21 -4 -23 -10 -23 -62 0 -32 -3 -79 -6 -105 l-7 -46 31
0 c27 0 31 4 34 33 l4 32 11 -25 c14 -32 31 -47 66 -55 25 -7 27 -5 27 24 0
24 -4 31 -19 31 -29 0 -36 20 -13 36 47 32 34 106 -23 129 -35 15 -42 16 -82
8z m77 -79 c0 -19 -5 -24 -25 -24 -20 0 -25 5 -25 24 0 13 6 26 13 29 22 7 37
-4 37 -29z"/>
<path d="M2820 279 l-23 -32 -22 28 c-19 23 -25 25 -44 16 -27 -15 -27 -20 9
-67 23 -31 29 -49 30 -90 0 -50 0 -50 29 -46 27 4 28 6 23 47 -4 37 0 50 29
89 l33 47 -21 20 -20 21 -23 -33z"/>
<path d="M95 275 c-14 -13 -25 -33 -25 -45 0 -22 41 -70 60 -70 6 0 10 28 10
70 0 77 -7 84 -45 45z"/>
<path d="M150 230 c0 -38 4 -70 9 -70 24 0 54 39 54 70 0 31 -30 70 -54 70 -5
0 -9 -31 -9 -70z"/>
<path d="M259 296 c0 0 -2 -11 -3 -23 -3 -22 1 -23 66 -23 l68 0 0 -41 0 -41
-18 23 c-38 45 -122 16 -122 -43 0 -25 44 -68 70 -68 12 0 32 11 45 25 l25 24
0 -24 c0 -18 5 -25 20 -25 19 0 20 7 20 100 0 72 -4 102 -12 105 -12 3 -157
14 -159 11z m86 -146 c0 -18 -6 -26 -23 -28 -13 -2 -25 3 -28 12 -10 26 4 48
28 44 17 -2 23 -10 23 -28z"/>
<path d="M1064 290 c-56 -22 -73 -117 -31 -165 30 -34 75 -46 115 -30 32 14
57 49 47 65 -9 15 -41 12 -55 -5 -27 -33 -80 -6 -80 40 0 15 10 31 25 41 23
15 27 15 50 0 28 -19 65 -13 65 9 0 39 -83 67 -136 45z"/>
<path d="M1675 275 c-14 -13 -25 -32 -25 -42 0 -26 26 -60 50 -66 19 -5 20 -1
20 64 0 76 -7 83 -45 44z"/>
<path d="M1730 230 c0 -42 4 -70 10 -70 19 0 60 48 60 70 0 22 -41 70 -60 70
-6 0 -10 -28 -10 -70z"/>
<path d="M2040 193 l0 -108 75 0 76 0 -3 105 c-3 100 -4 105 -25 108 -22 3
-23 1 -23 -87 0 -90 0 -91 -25 -91 -25 0 -25 1 -25 90 0 89 0 90 -25 90 l-25
0 0 -107z"/>
<path d="M2453 283 c-8 -20 7 -34 28 -28 17 6 19 1 19 -57 0 -76 16 -105 64
-113 51 -10 106 24 106 66 0 18 -42 9 -60 -13 -15 -19 -22 -21 -37 -12 -14 8
-19 26 -21 74 l-3 63 60 -6 c58 -6 61 -6 61 16 0 21 -3 22 -106 22 -74 0 -108
-4 -111 -12z"/>
<path d="M890 154 c0 -72 1 -74 25 -74 24 0 25 2 25 69 0 65 -1 69 -25 73 -25
5 -25 5 -25 -68z"/>
<path d="M70 118 c0 -37 1 -38 35 -38 33 0 35 2 35 34 0 31 -3 34 -35 38 -35
4 -35 4 -35 -34z"/>
<path d="M1650 115 c0 -33 2 -35 35 -35 33 0 35 2 35 35 0 33 -2 35 -35 35
-33 0 -35 -2 -35 -35z"/>
</g>
</svg>
