<?xml version="1.0" standalone="no"?>
<!DOCTYPE svg PUBLIC "-//W3C//DTD SVG 20010904//EN"
 "http://www.w3.org/TR/2001/REC-SVG-20010904/DTD/svg10.dtd">
<svg version="1.0" xmlns="http://www.w3.org/2000/svg"
 width="900.000000pt" height="138.000000pt" viewBox="0 0 900.000000 138.000000"
 preserveAspectRatio="xMidYMid meet">
<metadata>
Created by potrace 1.10, written by Peter Selinger 2001-2011
</metadata>
<g transform="translate(0.000000,138.000000) scale(0.100000,-0.100000)"
fill="#000000" stroke="none">
<path d="M2570 1071 c0 -28 3 -31 33 -31 48 0 55 -9 66 -80 14 -84 14 -356 0
-440 -11 -71 -19 -80 -66 -80 -39 0 -53 -18 -28 -36 13 -10 34 -12 74 -7 69 9
81 9 159 -1 l62 -8 0 26 c0 22 -5 26 -28 26 -16 0 -37 6 -48 14 -18 14 -19 29
-19 286 0 257 1 272 19 286 11 8 32 14 48 14 25 0 28 4 28 31 0 29 -2 31 -27
25 -16 -4 -49 -11 -75 -17 -45 -9 -74 -7 -170 17 -26 6 -28 4 -28 -25z"/>
<path d="M3173 1076 c-80 -29 -101 -44 -158 -109 -63 -70 -78 -112 -82 -229
-4 -92 -3 -100 27 -160 17 -35 47 -78 67 -95 101 -91 269 -126 416 -86 92 24
95 29 109 143 2 21 -2 26 -24 28 -24 3 -28 -1 -38 -37 -6 -23 -23 -50 -42 -66
-31 -26 -35 -27 -138 -23 -111 4 -130 10 -188 63 -61 55 -77 105 -77 235 1
130 17 180 77 236 53 49 96 64 188 64 111 0 145 -16 163 -78 11 -40 17 -47 37
-47 23 0 25 4 28 55 4 73 -10 89 -89 108 -106 25 -204 24 -276 -2z"/>
<path d="M3624 1086 c-10 -27 4 -46 33 -46 59 0 58 6 58 -300 0 -309 2 -300
-63 -300 -29 0 -33 -3 -30 -23 3 -24 2 -23 123 -16 28 1 78 -1 113 -5 l62 -8
0 26 c0 22 -5 26 -28 26 -59 0 -64 13 -73 171 -9 176 3 408 23 420 7 5 28 9
46 9 29 0 32 3 32 31 0 29 -2 31 -27 25 -116 -28 -152 -28 -240 -1 -16 5 -25
3 -29 -9z"/>
<path d="M4044 1086 c-9 -24 3 -46 26 -46 11 0 20 -5 20 -11 0 -6 -47 -61
-105 -122 -145 -155 -142 -150 -108 -184 15 -16 52 -57 82 -93 85 -100 123
-142 165 -182 38 -37 42 -38 178 -64 20 -4 29 0 38 16 15 28 7 36 -41 44 -35
6 -55 20 -129 94 -48 48 -113 119 -145 157 -32 39 -62 71 -67 73 -21 9 -1 36
96 131 127 126 132 129 198 139 48 7 53 10 53 32 0 29 -26 38 -60 20 -24 -13
-147 -10 -177 4 -12 6 -20 3 -24 -8z"/>
<path d="M4612 1088 c-7 -7 -12 -20 -12 -30 0 -13 8 -18 30 -18 17 0 39 -9 50
-20 19 -19 20 -33 20 -280 0 -247 -1 -261 -20 -280 -11 -11 -33 -20 -50 -20
-23 0 -30 -5 -30 -19 0 -19 23 -45 32 -36 15 15 123 23 180 14 50 -8 64 -7 76
5 20 19 7 36 -28 36 -19 0 -35 9 -49 26 -20 25 -21 39 -21 278 0 296 0 296 82
296 98 0 158 -54 158 -144 0 -105 -65 -186 -148 -186 -46 0 -64 -19 -42 -45
16 -19 53 -19 108 0 136 48 198 145 178 279 -5 34 -17 55 -47 84 -51 52 -123
67 -249 52 -83 -10 -159 -6 -191 11 -10 5 -21 3 -27 -3z"/>
<path d="M5814 1086 c-10 -27 4 -46 33 -46 61 0 65 -13 73 -270 6 -198 8 -218
29 -257 59 -110 212 -161 344 -115 45 16 117 74 117 93 0 5 7 9 16 9 13 0 15
-9 12 -47 l-3 -48 90 -7 c65 -5 92 -3 97 5 13 20 3 31 -30 38 -18 4 -38 12
-46 18 -47 39 -49 543 -2 573 6 4 23 8 37 8 31 0 43 21 25 45 -10 13 -17 15
-32 8 -10 -6 -39 -13 -64 -17 -40 -6 -72 -2 -162 20 -26 6 -28 4 -28 -25 0
-27 3 -31 28 -31 16 0 37 -6 48 -14 18 -14 19 -28 19 -244 l0 -229 -25 -27
c-61 -67 -149 -98 -232 -82 -45 8 -99 59 -124 116 -17 39 -19 69 -19 248 0
190 1 205 19 218 11 8 32 14 48 14 24 0 28 4 28 30 0 23 -5 30 -19 30 -11 0
-22 -4 -25 -9 -15 -24 -139 -22 -223 4 -16 5 -25 3 -29 -9z"/>
<path d="M7160 1071 c0 -27 3 -31 28 -31 62 0 63 -5 72 -251 5 -123 7 -225 5
-227 -8 -9 -37 17 -77 69 -24 31 -70 89 -103 129 -103 125 -133 163 -195 241
l-59 76 -83 5 c-51 3 -86 1 -90 -5 -12 -19 4 -37 33 -37 15 0 40 -11 56 -24
l27 -24 -2 -258 c-3 -248 -4 -260 -24 -277 -11 -9 -31 -17 -45 -17 -19 0 -24
-4 -21 -22 3 -21 8 -21 121 -22 81 -1 122 3 129 11 14 17 1 33 -27 33 -48 0
-63 32 -70 153 -8 141 -3 299 10 304 6 1 20 -12 32 -29 26 -37 103 -132 188
-232 33 -39 76 -91 95 -116 19 -25 39 -50 45 -56 5 -6 19 -27 30 -47 11 -20
24 -37 30 -37 6 0 26 17 44 37 31 34 32 40 22 69 -15 42 -15 454 1 506 8 29
18 40 37 44 46 10 51 13 51 32 0 17 -9 18 -102 18 -57 0 -115 4 -130 8 -26 8
-28 6 -28 -23z"/>
<path d="M8336 1088 c-22 -12 -134 -15 -184 -3 -31 6 -33 5 -30 -16 2 -14 11
-25 23 -27 11 -2 26 -9 34 -15 12 -10 91 -124 91 -132 0 -2 20 -38 45 -79 25
-42 45 -80 45 -85 0 -5 7 -14 15 -21 12 -10 15 -37 15 -126 0 -105 -1 -114
-22 -128 -12 -9 -32 -16 -45 -16 -28 0 -37 -14 -23 -39 9 -17 14 -19 38 -10
24 9 97 11 217 6 35 -2 40 1 43 21 3 20 -1 22 -37 22 -54 0 -67 26 -73 155
l-5 99 46 74 c155 246 163 256 211 268 39 10 45 14 42 34 -3 33 -7 34 -41 20
-29 -12 -119 -9 -172 5 -21 5 -27 3 -31 -12 -8 -32 2 -43 43 -43 21 0 39 -4
39 -10 0 -5 -27 -55 -61 -112 -33 -57 -67 -114 -74 -128 -25 -46 -29 -41 -113
112 -42 77 -47 85 -61 101 -17 21 -6 37 27 37 40 0 59 16 46 37 -14 22 -25 25
-48 11z"/>
<path d="M20 1065 c0 -21 5 -25 28 -25 16 0 36 -6 47 -13 17 -13 18 -33 18
-287 0 -254 -1 -274 -18 -287 -11 -7 -32 -13 -48 -13 -24 0 -28 -4 -25 -22 2
-19 9 -23 38 -21 19 1 69 2 110 2 41 0 91 -1 110 -2 29 -2 36 2 38 21 3 19 -1
22 -30 22 -18 0 -39 4 -46 9 -7 4 -18 41 -24 82 -13 92 -5 443 11 483 11 28
13 28 75 24 50 -3 71 -10 100 -31 l36 -28 0 -87 c0 -68 -4 -93 -19 -116 -28
-43 -70 -66 -119 -66 -41 0 -43 -1 -40 -27 2 -23 9 -29 34 -31 50 -5 139 34
185 82 71 72 93 162 60 237 -42 94 -131 128 -288 109 -63 -8 -108 -8 -154 -1
-83 14 -79 15 -79 -14z"/>
<path d="M865 1075 c-21 -9 -36 -27 -48 -57 -10 -23 -24 -56 -32 -71 -8 -16
-15 -33 -15 -39 0 -5 -6 -24 -14 -41 -7 -18 -20 -50 -29 -72 -14 -36 -72 -181
-98 -245 -33 -80 -46 -95 -90 -106 -40 -10 -45 -15 -40 -42 0 -5 49 -8 109 -7
91 2 107 4 110 18 2 11 -6 21 -23 27 -24 9 -27 14 -21 41 3 17 12 45 20 62 8
18 18 43 21 57 14 48 20 50 160 50 129 0 133 -1 138 -22 3 -13 15 -48 27 -78
32 -79 32 -104 -2 -108 -22 -3 -28 -9 -28 -26 0 -23 1 -23 99 -18 58 3 112 0
130 -6 27 -9 32 -8 41 9 14 26 5 39 -27 39 -26 0 -93 62 -93 86 0 7 -6 25 -14
41 -22 43 -71 153 -91 203 -10 25 -24 60 -31 78 -8 17 -20 47 -28 65 -19 46
-42 107 -52 142 -11 35 -34 40 -79 20z m23 -131 c4 -23 29 -89 48 -126 8 -14
14 -32 14 -39 0 -7 7 -20 16 -30 33 -37 13 -46 -93 -43 -54 1 -101 3 -105 3
-13 1 -9 18 13 69 45 102 49 113 49 130 0 24 29 64 43 59 7 -2 13 -12 15 -23z"/>
<path d="M1910 1066 c0 -20 5 -26 23 -26 12 0 33 -7 45 -16 22 -15 22 -17 22
-284 0 -267 0 -269 -22 -284 -12 -9 -35 -16 -50 -16 -20 0 -28 -5 -28 -18 0
-29 19 -42 47 -31 32 12 123 14 190 5 45 -7 53 -5 62 12 13 25 5 32 -35 32
-25 0 -38 7 -51 27 -16 24 -18 55 -18 279 0 238 1 253 20 274 17 19 28 22 81
18 111 -7 154 -61 138 -176 -9 -73 -54 -120 -119 -128 -80 -10 -97 -34 -42
-57 21 -9 57 -47 107 -112 109 -143 130 -162 183 -170 58 -9 81 -4 85 18 2 11
-7 21 -25 29 -33 16 -37 19 -136 133 -106 121 -105 117 -56 149 104 69 146
179 98 260 -50 85 -139 114 -293 96 -86 -10 -114 -9 -198 6 -25 5 -28 3 -28
-20z"/>
<path d="M5196 1074 c-9 -23 2 -34 33 -34 16 0 36 -9 47 -21 18 -20 19 -39 19
-279 0 -240 -1 -259 -19 -279 -12 -14 -31 -21 -53 -21 -30 0 -34 -3 -31 -22 2
-19 9 -23 38 -21 111 6 188 4 211 -5 30 -12 49 0 49 30 0 13 -8 18 -30 18 -17
0 -39 9 -50 20 -19 19 -20 33 -20 284 0 312 -4 300 96 294 52 -3 70 -9 101
-35 37 -29 38 -33 41 -100 3 -66 1 -73 -30 -114 -33 -43 -50 -51 -130 -64 -29
-4 -38 -11 -38 -25 0 -14 7 -20 21 -20 25 0 66 -42 152 -155 80 -103 102 -123
146 -130 20 -4 45 -8 55 -10 23 -5 46 11 46 31 0 8 -15 20 -33 28 -33 13 -146
130 -207 212 l-30 42 44 26 c66 39 115 118 116 187 0 28 -22 84 -42 109 -45
53 -140 74 -270 60 -60 -7 -109 -7 -151 0 -78 13 -74 13 -81 -6z"/>
<path d="M1227 1073 c-6 -5 0 -87 9 -130 3 -14 12 -23 23 -23 21 0 31 19 31
59 0 39 37 56 124 56 l71 0 2 -280 c2 -154 -1 -286 -6 -294 -5 -8 -26 -17 -47
-20 -42 -7 -50 -19 -31 -44 11 -16 17 -16 42 -7 18 7 73 11 140 8 104 -3 110
-2 110 17 0 16 -8 21 -38 23 -63 5 -67 23 -67 306 0 144 4 256 10 272 11 27
11 27 88 20 42 -3 82 -12 89 -19 6 -6 18 -30 25 -52 13 -41 41 -58 51 -31 4 9
4 45 0 80 l-6 65 -307 0 c-169 0 -310 -3 -313 -6z"/>
<path d="M7466 1073 c-3 -4 -6 -39 -6 -80 0 -64 2 -73 18 -73 25 0 42 20 42
50 0 48 19 61 101 67 109 8 104 23 104 -292 0 -244 -1 -264 -19 -284 -11 -12
-31 -21 -48 -21 -35 0 -49 -27 -24 -46 13 -9 25 -10 43 -3 33 12 170 11 194
-2 24 -13 49 4 49 32 0 14 -7 19 -30 19 -17 0 -39 9 -50 20 -19 19 -20 33 -20
289 0 228 2 270 15 281 11 9 37 11 85 8 86 -6 110 -24 110 -80 0 -34 3 -38 24
-38 29 0 35 15 34 92 -1 36 -5 59 -13 62 -19 7 -602 6 -609 -1z"/>
</g>
</svg>
