<?xml version="1.0" standalone="no"?>
<!DOCTYPE svg PUBLIC "-//W3C//DTD SVG 20010904//EN"
 "http://www.w3.org/TR/2001/REC-SVG-20010904/DTD/svg10.dtd">
<svg version="1.0" xmlns="http://www.w3.org/2000/svg"
 width="300.000000pt" height="46.000000pt" viewBox="0 0 300.000000 46.000000"
 preserveAspectRatio="xMidYMid meet">
<metadata>
Created by potrace 1.10, written by Peter Selinger 2001-2011
</metadata>
<g transform="translate(0.000000,46.000000) scale(0.100000,-0.100000)"
fill="#000000" stroke="none">
<path d="M10 358 c0 -5 7 -8 15 -8 12 0 15 -18 15 -100 0 -82 -3 -100 -15
-100 -8 0 -15 -3 -15 -7 0 -5 23 -8 50 -8 28 0 50 3 50 8 0 4 -6 7 -14 7 -18
0 -26 31 -26 100 0 77 8 100 34 100 31 0 46 -19 46 -55 0 -35 -15 -55 -42 -55
-10 0 -18 -5 -18 -11 0 -19 53 0 78 27 27 30 28 54 5 83 -15 18 -30 22 -91 24
-39 1 -72 -1 -72 -5z"/>
<path d="M293 362 c-6 -4 -29 -52 -51 -107 -25 -62 -46 -101 -56 -103 -29 -6
-17 -17 19 -17 19 0 35 3 35 8 0 4 -4 7 -9 7 -5 0 -4 15 2 35 10 34 12 35 58
35 44 0 48 -2 58 -32 8 -22 8 -34 1 -36 -24 -8 -7 -17 35 -17 49 0 54 4 27 22
-10 6 -36 53 -57 104 -44 107 -46 111 -62 101z m31 -108 c5 -18 2 -20 -29 -16
-40 5 -41 6 -19 58 l16 38 13 -30 c7 -17 15 -39 19 -50z"/>
<path d="M640 358 c0 -5 7 -8 15 -8 12 0 15 -18 15 -100 0 -82 -3 -100 -15
-100 -8 0 -15 -3 -15 -7 0 -5 21 -7 47 -6 62 2 62 3 35 13 -22 9 -23 14 -20
102 3 88 4 93 26 96 31 5 52 -15 52 -49 0 -28 -35 -64 -52 -53 -4 3 -8 0 -8
-5 0 -6 4 -11 8 -11 5 0 23 -20 41 -44 30 -39 81 -68 81 -45 0 5 -4 9 -8 9 -5
0 -23 18 -41 40 l-32 41 25 30 c53 63 24 99 -83 102 -39 1 -71 -1 -71 -5z"/>
<path d="M860 358 c0 -5 6 -8 14 -8 18 0 26 -31 26 -100 0 -69 -8 -100 -26
-100 -8 0 -14 -3 -14 -7 0 -5 23 -8 50 -8 28 0 50 3 50 8 0 4 -7 7 -15 7 -12
0 -15 18 -15 100 0 82 3 100 15 100 8 0 15 3 15 8 0 4 -22 7 -50 7 -27 0 -50
-3 -50 -7z"/>
<path d="M1054 356 c-66 -30 -92 -102 -60 -164 23 -44 83 -68 145 -57 31 5 40
12 44 31 5 29 -4 31 -21 4 -18 -30 -85 -28 -117 5 -20 19 -25 34 -25 73 0 71
27 102 87 102 36 0 46 -4 50 -20 3 -11 9 -20 14 -20 11 0 12 37 1 44 -23 14
-90 15 -118 2z"/>
<path d="M1210 358 c0 -5 6 -8 14 -8 20 0 26 -23 26 -100 0 -77 -6 -100 -26
-100 -8 0 -14 -3 -14 -7 0 -5 23 -8 50 -8 28 0 50 3 50 8 0 4 -6 7 -14 7 -9 0
-15 17 -18 53 -6 81 2 147 18 147 8 0 14 3 14 8 0 4 -22 7 -50 7 -27 0 -50 -3
-50 -7z"/>
<path d="M1350 358 c0 -5 5 -8 12 -8 7 0 -7 -19 -30 -43 -23 -23 -42 -47 -42
-52 1 -19 105 -113 133 -119 16 -4 27 -2 27 4 0 5 -6 10 -13 10 -7 0 -31 19
-53 43 -73 77 -72 72 -23 117 24 22 52 40 61 40 10 0 18 3 18 8 0 4 -20 7 -45
7 -25 0 -45 -3 -45 -7z"/>
<path d="M1540 359 c0 -4 7 -9 15 -13 22 -8 22 -184 0 -192 -29 -12 -15 -19
32 -17 62 2 62 3 35 13 -22 9 -23 14 -20 102 3 88 4 93 26 96 30 5 52 -14 52
-45 0 -38 -18 -63 -45 -63 -14 0 -25 -4 -25 -10 0 -25 82 6 94 35 13 35 6 74
-16 86 -23 12 -148 19 -148 8z"/>
<path d="M1734 359 c-2 -4 5 -9 16 -12 18 -5 20 -14 20 -96 0 -86 -1 -92 -22
-101 -27 -10 -26 -11 35 -13 47 -2 61 5 32 17 -12 4 -15 25 -15 101 l0 95 28
0 c35 0 52 -16 52 -51 0 -30 -33 -61 -56 -52 -22 8 -17 1 34 -53 39 -42 92
-77 92 -62 0 2 -20 25 -44 51 l-44 48 29 29 c34 33 36 49 11 80 -15 19 -29 22
-91 23 -40 1 -75 -1 -77 -4z"/>
<path d="M1940 358 c0 -5 6 -8 14 -8 20 0 26 -23 26 -100 0 -89 19 -115 83
-115 30 0 52 6 66 19 17 16 21 16 21 4 0 -10 12 -17 30 -20 17 -3 30 -1 30 4
0 4 -6 8 -14 8 -16 0 -26 43 -26 109 0 60 9 91 26 91 8 0 14 3 14 8 0 4 -22 7
-50 7 -27 0 -50 -3 -50 -7 0 -5 7 -8 15 -8 16 0 21 -42 17 -125 -4 -69 -81
-104 -116 -53 -22 31 -23 178 -1 178 8 0 15 3 15 8 0 4 -22 7 -50 7 -27 0 -50
-3 -50 -7z"/>
<path d="M2220 359 c0 -3 9 -9 20 -12 18 -5 20 -14 20 -101 0 -79 -3 -96 -15
-96 -8 0 -15 -3 -15 -7 0 -5 19 -7 42 -6 56 2 57 3 31 13 -21 9 -23 16 -23 86
l0 76 74 -91 c51 -62 77 -87 82 -79 5 7 7 47 5 90 -3 86 4 118 25 118 8 0 14
3 14 8 0 4 -20 7 -45 7 -25 0 -45 -3 -45 -7 0 -5 6 -8 14 -8 10 0 15 -20 18
-77 3 -43 3 -80 1 -82 -1 -2 -13 9 -25 25 -88 112 -118 142 -147 146 -17 3
-31 1 -31 -3z"/>
<path d="M2710 359 c0 -4 6 -9 14 -12 7 -3 28 -30 45 -60 35 -61 44 -137 16
-137 -8 0 -15 -3 -15 -7 0 -5 23 -8 50 -8 51 0 66 9 30 18 -33 9 -26 69 16
138 19 33 42 59 50 59 8 0 14 3 14 8 0 4 -18 7 -40 7 -39 1 -55 -10 -25 -17
12 -2 10 -11 -11 -46 -14 -23 -30 -40 -35 -36 -5 3 -18 23 -29 45 -17 33 -18
39 -5 39 8 0 15 3 15 8 0 4 -20 7 -45 7 -25 0 -45 -3 -45 -6z"/>
<path d="M418 333 c5 -26 5 -26 13 -5 6 16 17 22 39 22 l30 0 0 -100 c0 -82
-3 -100 -15 -100 -8 0 -15 -3 -15 -7 0 -5 23 -8 50 -8 51 0 66 9 30 18 -19 5
-21 12 -18 99 l3 93 31 3 c24 2 33 -2 42 -20 11 -23 11 -23 11 5 l1 27 -104 0
-103 0 5 -27z"/>
<path d="M2490 335 c0 -30 16 -33 23 -5 4 15 14 20 36 20 l31 0 0 -95 c0 -90
-1 -96 -22 -105 -27 -10 -26 -11 35 -13 47 -2 61 5 32 17 -12 4 -15 25 -15
101 l0 95 31 0 c22 0 32 -5 36 -20 7 -28 23 -25 23 5 l0 25 -105 0 -105 0 0
-25z"/>
</g>
</svg>
