<?xml version="1.0" standalone="no"?>
<!DOCTYPE svg PUBLIC "-//W3C//DTD SVG 20010904//EN"
 "http://www.w3.org/TR/2001/REC-SVG-20010904/DTD/svg10.dtd">
<svg version="1.0" xmlns="http://www.w3.org/2000/svg"
 width="300.000000pt" height="300.000000pt" viewBox="0 0 300.000000 300.000000"
 preserveAspectRatio="xMidYMid meet">
<metadata>
Created by potrace 1.10, written by Peter Selinger 2001-2011
</metadata>
<g transform="translate(0.000000,300.000000) scale(0.100000,-0.100000)"
fill="#000000" stroke="none">
<path d="M1536 2473 c-3 -4 -6 -287 -6 -630 l0 -623 48 0 c138 1 292 69 402
180 126 126 182 260 182 440 2 268 -121 467 -354 574 -81 38 -256 75 -272 59z"/>
<path d="M1325 2463 c-241 -54 -419 -231 -475 -472 -18 -78 -8 -268 19 -353
29 -90 109 -207 185 -270 101 -85 259 -148 368 -148 l48 0 0 625 0 625 -62 -1
c-35 -1 -72 -3 -83 -6z"/>
<path d="M840 835 l0 -315 315 0 315 0 0 315 0 315 -315 0 -315 0 0 -315z"/>
</g>
</svg>
