<?xml version="1.0" standalone="no"?>
<!DOCTYPE svg PUBLIC "-//W3C//DTD SVG 20010904//EN"
 "http://www.w3.org/TR/2001/REC-SVG-20010904/DTD/svg10.dtd">
<svg version="1.0" xmlns="http://www.w3.org/2000/svg"
 width="464.000000pt" height="83.000000pt" viewBox="0 0 464.000000 83.000000"
 preserveAspectRatio="xMidYMid meet">
<metadata>
Created by potrace 1.10, written by Peter Selinger 2001-2011
</metadata>
<g transform="translate(0.000000,83.000000) scale(0.100000,-0.100000)"
fill="#000000" stroke="none">
<path d="M524 580 c-15 -6 -30 -31 -49 -82 -68 -182 -86 -218 -111 -224 -41
-10 -27 -19 31 -19 54 0 70 7 40 19 -13 5 -13 11 3 53 l18 48 64 3 65 3 17
-48 c16 -42 16 -49 3 -59 -8 -6 -15 -13 -15 -15 0 -2 29 -4 65 -4 69 0 79 5
41 23 -18 8 -39 46 -86 159 -35 81 -63 149 -64 149 0 1 -11 -2 -22 -6z m22
-107 c13 -32 24 -61 24 -65 0 -5 -23 -8 -51 -8 -35 0 -49 4 -47 13 13 49 42
126 46 122 3 -2 15 -31 28 -62z"/>
<path d="M1651 580 c-43 -10 -80 -38 -108 -80 -18 -25 -23 -47 -23 -91 0 -53
3 -63 36 -98 44 -49 88 -64 170 -59 71 4 79 9 89 56 8 40 -11 44 -26 5 -14
-36 -25 -43 -79 -43 -93 0 -147 66 -137 167 7 68 36 109 88 124 54 17 114 -1
123 -36 9 -37 26 -31 26 9 0 30 -4 35 -27 40 -63 12 -100 14 -132 6z"/>
<path d="M130 567 c25 -12 25 -14 25 -147 0 -130 -1 -135 -22 -145 -38 -16
-27 -21 47 -21 38 1 70 4 70 9 0 4 -7 7 -15 7 -27 0 -35 38 -35 159 0 105 2
122 18 130 26 14 71 1 89 -25 31 -48 -8 -134 -62 -134 -14 0 -25 -4 -25 -10 0
-13 46 -13 73 1 62 32 89 87 67 138 -16 41 -49 51 -158 51 -85 0 -94 -2 -72
-13z"/>
<path d="M700 545 c0 -40 15 -47 24 -11 5 19 14 25 47 28 22 2 43 -1 46 -6 9
-13 7 -261 -1 -275 -4 -6 -17 -11 -28 -11 -12 0 -18 -3 -15 -6 8 -8 147 -11
147 -4 0 3 -10 10 -22 15 -22 10 -23 16 -26 144 -2 88 1 137 8 141 22 14 85
-5 95 -28 14 -32 25 -27 25 13 l0 35 -150 0 -150 0 0 -35z"/>
<path d="M1040 567 c25 -12 25 -15 28 -150 l3 -136 -26 -7 c-46 -11 -26 -20
50 -20 41 0 75 4 75 8 0 5 -9 8 -20 8 -31 0 -37 27 -35 158 2 126 9 149 43
137 8 -3 20 -5 27 -5 8 0 21 -7 29 -16 39 -38 -1 -141 -51 -131 -33 6 -38 -8
-9 -27 13 -8 44 -40 68 -71 43 -56 73 -73 105 -60 16 6 16 8 -3 18 -23 13
-114 116 -114 129 0 4 6 8 14 8 25 0 56 50 56 91 0 29 -6 42 -26 58 -23 18
-40 21 -133 21 -92 0 -103 -2 -81 -13z"/>
<path d="M1360 569 c13 -6 28 -15 32 -22 12 -18 10 -235 -2 -258 -6 -10 -17
-19 -25 -19 -8 0 -15 -3 -15 -7 0 -5 32 -8 70 -9 74 0 85 5 48 21 -22 10 -23
15 -23 145 0 133 0 135 25 147 22 11 16 13 -55 12 -63 0 -75 -2 -55 -10z"/>
<path d="M1873 568 l28 -10 -3 -141 c-3 -139 -4 -142 -25 -145 -50 -7 -19 -18
52 -18 71 0 102 11 53 18 -23 3 -23 5 -23 143 0 139 0 139 25 152 22 11 16 13
-55 12 -66 0 -75 -2 -52 -11z"/>
<path d="M2063 573 c29 -7 20 -26 -42 -87 l-60 -59 72 -78 c40 -43 85 -83 101
-89 62 -21 93 -4 35 20 -16 7 -60 47 -95 88 l-66 75 58 58 c36 37 70 61 93 67
32 9 27 10 -39 10 -41 0 -67 -2 -57 -5z"/>
<path d="M2341 569 c32 -12 39 -39 39 -160 0 -102 -11 -139 -40 -139 -11 0
-20 -3 -20 -8 0 -4 34 -8 75 -8 76 0 96 9 50 20 l-25 6 0 139 c0 154 1 156 64
139 37 -10 46 -23 46 -71 0 -43 -35 -87 -70 -87 -11 0 -20 -4 -20 -10 0 -15
38 -12 76 6 64 31 85 114 39 159 -23 24 -30 25 -132 24 -82 0 -102 -3 -82 -10z"/>
<path d="M2633 568 l27 -10 0 -139 0 -139 -25 -6 c-46 -11 -26 -20 50 -20 71
0 102 11 53 18 -22 3 -23 6 -26 144 -3 159 -1 163 69 140 31 -10 34 -15 37
-55 4 -51 -27 -94 -65 -89 -33 4 -32 -5 8 -40 20 -17 48 -49 64 -71 20 -30 37
-42 62 -47 19 -4 36 -5 38 -2 2 2 -25 34 -60 71 -66 69 -76 87 -51 87 25 0 56
50 56 91 0 29 -6 42 -26 58 -23 18 -40 21 -133 20 -83 0 -100 -3 -78 -11z"/>
<path d="M2930 567 c24 -12 25 -18 31 -122 6 -121 17 -153 59 -178 53 -32 153
-15 179 30 9 15 10 13 11 -12 0 -29 2 -30 45 -32 25 -1 47 3 50 8 4 5 -3 9
-14 9 -33 0 -41 31 -41 152 0 115 6 139 40 151 8 3 -18 6 -59 6 l-73 1 23 -19
c23 -18 24 -26 24 -125 0 -100 -1 -107 -26 -131 -39 -39 -97 -44 -135 -12
l-29 25 0 118 c0 116 0 119 25 131 22 11 16 13 -55 13 -71 0 -77 -2 -55 -13z"/>
<path d="M3348 560 l33 -20 -3 -128 c-3 -121 -4 -127 -25 -137 -38 -16 -26
-22 40 -20 74 4 79 5 48 14 -33 9 -43 49 -39 153 l3 82 94 -114 c127 -155 119
-146 133 -132 7 7 10 52 9 139 -3 140 1 160 33 173 15 6 -1 9 -49 9 -52 0 -64
-3 -47 -9 12 -5 24 -15 27 -22 7 -23 11 -218 4 -216 -8 3 -177 205 -193 231
-8 12 -24 17 -56 17 l-45 0 33 -20z"/>
<path d="M3710 545 c0 -39 17 -48 22 -12 2 18 11 23 46 28 57 7 62 -3 62 -141
0 -113 -9 -150 -35 -150 -8 0 -15 -3 -15 -7 0 -5 32 -8 70 -8 39 0 70 3 70 8
0 4 -7 7 -15 7 -8 0 -19 9 -25 19 -13 25 -13 254 0 267 6 6 29 8 53 4 36 -5
42 -9 40 -28 -2 -14 3 -22 12 -22 10 0 15 11 15 35 l0 35 -150 0 -150 0 0 -35z"/>
<path d="M4038 568 c12 -6 45 -49 73 -94 47 -78 50 -87 47 -141 -3 -51 -6 -58
-25 -61 -50 -7 -19 -18 52 -18 71 0 102 11 53 18 -21 3 -23 9 -26 69 -3 64 -1
69 45 142 29 46 58 80 73 86 20 7 11 9 -40 9 -36 0 -55 -3 -42 -5 30 -6 28
-17 -17 -91 l-39 -63 -36 65 c-41 73 -43 83 -18 89 9 3 -14 5 -53 5 -58 1 -66
-1 -47 -10z"/>
</g>
</svg>
