<?xml version="1.0" standalone="no"?>
<!DOCTYPE svg PUBLIC "-//W3C//DTD SVG 20010904//EN"
 "http://www.w3.org/TR/2001/REC-SVG-20010904/DTD/svg10.dtd">
<svg version="1.0" xmlns="http://www.w3.org/2000/svg"
 width="766.000000pt" height="117.000000pt" viewBox="0 0 766.000000 117.000000"
 preserveAspectRatio="xMidYMid meet">
<metadata>
Created by potrace 1.10, written by Peter Selinger 2001-2011
</metadata>
<g transform="translate(0.000000,117.000000) scale(0.100000,-0.100000)"
fill="#000000" stroke="none">
<path d="M20 1019 c0 -4 8 -9 18 -11 15 -4 20 -19 25 -79 3 -41 3 -107 0 -148
-5 -60 -10 -75 -25 -79 -38 -9 -16 -17 52 -17 39 0 70 3 70 8 0 4 -7 7 -15 7
-27 0 -35 38 -35 163 0 139 6 154 59 142 46 -10 65 -37 58 -86 -7 -51 -31 -79
-69 -79 -19 0 -28 -4 -25 -12 2 -8 16 -12 32 -10 68 8 115 57 115 122 0 37
-38 79 -72 81 -82 4 -188 3 -188 -2z"/>
<path d="M439 1023 c-9 -2 -38 -63 -74 -155 -52 -133 -62 -152 -88 -163 -37
-15 -25 -22 35 -20 44 1 83 15 43 15 -19 0 -18 25 4 83 10 26 13 27 80 27 l69
0 16 -47 c15 -43 15 -49 1 -59 -8 -6 -15 -13 -15 -15 0 -2 32 -4 70 -5 70 0
91 9 46 20 -19 5 -33 28 -71 113 -26 60 -56 132 -68 161 -11 28 -23 51 -26 51
-3 -1 -13 -3 -22 -6z m32 -123 l27 -70 -60 0 c-53 0 -59 2 -54 18 33 88 51
130 55 126 2 -2 17 -36 32 -74z"/>
<path d="M620 987 c0 -41 22 -49 28 -10 2 16 13 22 45 26 23 3 46 2 50 -2 4
-4 6 -72 5 -152 -3 -141 -4 -144 -25 -147 -50 -7 -19 -18 52 -18 79 0 90 5 53
21 -22 10 -23 16 -26 153 -3 159 -3 158 63 144 30 -6 41 -13 43 -30 5 -36 22
-25 22 16 l0 37 -155 0 -155 0 0 -38z"/>
<path d="M960 1018 c0 -5 7 -8 15 -8 25 0 35 -45 35 -155 0 -119 -10 -155 -41
-155 -12 0 -19 -3 -15 -7 9 -9 147 -10 153 -1 2 5 -5 8 -16 8 -33 0 -41 32
-41 157 0 145 8 162 66 148 51 -13 71 -50 54 -100 -13 -39 -35 -55 -74 -55
-30 0 -34 -13 -8 -26 11 -5 44 -38 74 -74 43 -51 61 -66 86 -68 36 -4 42 7 14
25 -11 6 -40 36 -66 67 l-48 55 35 31 c20 17 38 44 42 60 8 36 -17 86 -47 96
-30 10 -218 11 -218 2z"/>
<path d="M1290 1018 c0 -4 10 -8 23 -10 22 -3 22 -6 25 -150 l3 -147 -26 -7
c-46 -11 -26 -20 50 -20 79 0 90 5 53 21 -22 10 -23 14 -23 150 0 136 1 140
23 150 12 5 22 12 22 15 0 3 -34 5 -75 5 -41 0 -75 -3 -75 -7z"/>
<path d="M1575 1011 c-77 -35 -114 -104 -102 -191 11 -82 87 -140 184 -140 57
0 113 16 113 33 0 7 3 22 6 35 9 30 -14 29 -26 -2 -13 -35 -45 -49 -102 -44
-38 4 -57 12 -80 35 -70 70 -55 218 26 257 69 32 156 11 156 -39 0 -8 5 -15
10 -15 6 0 10 16 10 35 0 31 -3 35 -37 44 -56 16 -113 13 -158 -8z"/>
<path d="M1820 1018 c0 -5 7 -8 15 -8 26 0 35 -38 35 -155 0 -117 -9 -155 -35
-155 -8 0 -15 -3 -15 -8 0 -9 137 -8 146 1 4 4 -3 7 -15 7 -32 0 -41 36 -41
161 0 119 9 149 42 149 12 0 18 3 14 7 -9 9 -146 10 -146 1z"/>
<path d="M2030 1018 c0 -5 5 -8 10 -8 20 0 9 -18 -52 -85 -52 -56 -60 -69 -47
-79 8 -6 39 -40 69 -74 60 -70 93 -92 140 -92 36 0 40 15 6 24 -25 6 -85 62
-144 134 l-36 44 66 64 c49 47 73 64 94 64 15 0 24 3 20 7 -10 10 -126 10
-126 1z"/>
<path d="M2304 1018 c-2 -4 6 -8 18 -10 30 -4 36 -32 36 -153 0 -122 -6 -147
-38 -156 -33 -9 -27 -11 58 -13 76 -1 87 3 50 19 -22 10 -23 16 -26 144 -3
150 3 167 52 157 45 -9 66 -34 66 -76 0 -50 -32 -90 -72 -90 -19 0 -28 -4 -25
-12 2 -8 16 -12 32 -10 68 8 115 57 115 122 0 37 -38 79 -72 81 -84 5 -191 3
-194 -3z"/>
<path d="M2600 1019 c0 -4 11 -10 25 -13 l25 -6 0 -145 0 -145 -25 -6 c-46
-11 -26 -20 50 -20 79 0 90 5 53 21 -22 10 -23 16 -26 149 -1 79 2 144 7 149
13 13 77 0 96 -19 39 -40 0 -134 -56 -134 -16 0 -29 -2 -29 -4 0 -2 17 -21 38
-43 20 -21 53 -58 73 -81 28 -33 43 -42 68 -42 17 0 31 5 31 10 0 6 -5 10 -10
10 -13 0 -57 44 -95 94 l-27 35 37 35 c32 31 36 39 33 77 -5 68 -33 82 -163
83 -58 1 -105 -2 -105 -5z"/>
<path d="M2910 1019 c0 -4 11 -10 24 -13 23 -6 24 -10 28 -123 2 -67 10 -128
17 -141 32 -59 135 -81 199 -42 17 11 32 24 32 30 0 5 4 10 10 10 5 0 7 -12 4
-27 -5 -27 -4 -28 45 -30 53 -1 68 10 27 21 -30 7 -36 37 -36 168 0 101 9 138
35 138 8 0 15 3 15 8 0 9 -137 8 -146 -1 -4 -4 3 -7 15 -7 32 0 43 -41 39
-153 -3 -94 -4 -100 -31 -123 -54 -47 -112 -43 -151 9 -18 25 -21 42 -21 140
0 107 1 112 23 122 12 5 22 12 22 15 0 3 -34 5 -75 5 -41 0 -75 -3 -75 -6z"/>
<path d="M3330 1020 c0 -4 11 -11 25 -14 13 -3 28 -14 33 -24 5 -9 6 -74 4
-145 -4 -125 -4 -127 -28 -133 -14 -4 -22 -9 -19 -12 9 -9 125 -9 125 0 0 4
-7 8 -15 8 -27 0 -36 38 -33 141 l3 100 92 -113 c51 -62 99 -122 107 -133 12
-16 16 -17 30 -6 13 11 15 28 10 100 -3 47 -1 115 3 151 7 57 11 65 33 71 32
9 28 10 -47 13 -35 1 -63 -2 -63 -6 0 -4 7 -8 15 -8 26 0 35 -37 35 -147 l-1
-108 -30 35 c-17 19 -67 79 -110 134 -78 95 -81 98 -125 101 -24 2 -44 -1 -44
-5z"/>
<path d="M3740 988 c0 -41 17 -52 22 -16 2 18 12 24 47 31 33 7 46 5 52 -5 5
-7 8 -74 7 -148 -3 -129 -4 -135 -25 -145 -39 -17 -26 -22 50 -19 85 3 90 4
57 13 -18 5 -26 17 -33 46 -9 40 -4 251 6 261 3 3 25 2 49 -3 34 -7 44 -13 46
-31 5 -33 22 -27 22 8 0 17 0 32 0 36 0 3 -67 6 -150 7 l-150 2 0 -37z"/>
<path d="M4060 1019 c0 -4 8 -9 19 -12 10 -2 41 -43 70 -90 47 -77 51 -90 51
-146 0 -56 -2 -61 -25 -67 -46 -11 -26 -20 50 -20 79 0 90 5 53 21 -20 9 -23
19 -26 72 -3 58 0 67 39 130 55 88 68 103 91 103 10 0 18 3 18 8 0 4 -29 7
-65 8 -36 0 -65 -3 -65 -8 0 -4 11 -8 25 -8 14 0 25 -3 25 -6 0 -8 -82 -145
-85 -142 -13 14 -75 126 -75 136 0 6 9 12 20 12 11 0 20 4 20 8 0 4 -31 8 -70
8 -38 -1 -70 -4 -70 -7z"/>
</g>
</svg>
