<?xml version="1.0" standalone="no"?>
<!DOCTYPE svg PUBLIC "-//W3C//DTD SVG 20010904//EN"
 "http://www.w3.org/TR/2001/REC-SVG-20010904/DTD/svg10.dtd">
<svg version="1.0" xmlns="http://www.w3.org/2000/svg"
 width="300.000000pt" height="225.000000pt" viewBox="0 0 300.000000 225.000000"
 preserveAspectRatio="xMidYMid meet">
<metadata>
Created by potrace 1.10, written by Peter Selinger 2001-2011
</metadata>
<g transform="translate(0.000000,225.000000) scale(0.050000,-0.050000)"
fill="#000000" stroke="none">
<path d="M2559 3713 c-352 -95 -515 -440 -361 -766 32 -67 68 -128 80 -136 45
-27 20 -49 -63 -55 -99 -7 -143 -107 -56 -130 22 -6 41 -25 41 -43 0 -18 18
-62 39 -97 37 -61 38 -70 9 -150 -78 -222 -26 -406 162 -569 103 -89 267 -297
248 -315 -21 -20 -165 -71 -174 -62 -6 5 1 47 14 92 29 96 18 113 -78 122 -53
4 -79 21 -110 70 -54 86 -59 85 -252 -62 -295 -225 -581 -551 -640 -729 -13
-39 -45 -89 -71 -109 -80 -63 -34 -214 64 -214 27 0 30 -17 18 -109 -22 -180
27 -451 81 -451 44 0 44 1 16 145 -43 219 -18 535 41 536 41 0 41 2 7 28 -33
25 -29 32 56 102 l92 76 41 -41 40 -41 -92 -75 -92 -76 5 -212 c5 -173 12
-212 36 -212 24 0 31 36 36 183 5 177 7 183 50 173 41 -8 42 -7 9 20 -43 35
199 268 256 246 36 -13 33 -19 -91 -181 l-89 -117 -1 -171 c0 -148 5 -173 35
-179 31 -6 35 11 35 145 0 143 2 151 45 152 40 0 42 3 12 25 -30 23 -28 33 27
105 33 43 72 97 88 118 26 37 30 37 60 7 31 -30 28 -41 -31 -145 -57 -100 -63
-123 -51 -210 12 -85 7 -108 -38 -174 -61 -89 -66 -127 -17 -126 22 1 89 86
183 231 81 126 158 226 170 222 45 -15 34 -80 -33 -181 -108 -162 -138 -231
-131 -299 9 -97 76 -101 76 -5 0 122 86 235 168 220 96 -18 147 85 103 209
-31 88 -86 715 -67 765 7 16 59 50 116 73 l104 44 -10 -55 c-6 -30 -23 -93
-37 -140 -100 -334 686 -388 922 -64 82 113 79 180 -10 274 -241 255 446 -38
737 -314 l157 -149 -72 -25 c-103 -36 -175 -92 -240 -186 -87 -125 -43 -122
71 5 121 136 240 187 287 122 111 -150 215 -436 252 -688 20 -135 29 -160 61
-160 46 0 47 23 7 251 -113 647 -618 1185 -1212 1291 -133 24 -137 26 -137 83
0 49 6 57 35 45 94 -39 195 -34 253 11 174 138 168 459 -9 459 -59 0 -78 26
-37 51 12 8 36 46 52 85 l30 72 37 -49 c21 -27 38 -72 39 -101 0 -65 19 -84
53 -55 36 29 34 98 -4 153 -36 50 -17 57 40 13 58 -44 146 -37 161 13 16 49
23 43 -96 95 l-97 42 51 67 c153 200 130 513 -49 685 -33 31 -59 72 -59 92 0
53 -36 65 -216 71 -166 5 -166 5 -269 95 -241 211 -572 310 -816 244z m347
-83 c294 -76 580 -313 732 -605 43 -83 4 -46 -75 71 -229 337 -658 566 -942
502 -361 -81 -478 -462 -232 -754 31 -36 51 -71 44 -78 -20 -20 -70 33 -132
142 -249 435 101 853 605 722z m140 -145 c186 -87 474 -325 474 -390 0 -4 -61
22 -135 59 -74 36 -193 77 -265 91 -103 20 -131 33 -137 65 -20 109 -94 106
-76 -3 20 -124 -66 -44 -102 95 -10 38 -30 68 -46 68 -49 0 -44 -87 10 -181
38 -64 45 -89 25 -89 -15 0 -38 23 -50 50 -27 58 -84 67 -84 14 0 -20 13 -54
28 -75 25 -34 19 -47 -63 -138 -50 -56 -104 -130 -122 -166 -41 -87 -60 -76
-140 77 -222 427 201 751 683 523z m733 -261 c105 -65 123 -176 52 -334 l-35
-80 -36 101 c-47 136 -93 224 -167 317 l-62 79 78 -13 c43 -7 119 -38 170 -70z
m-610 -75 c233 -60 552 -293 551 -403 -1 -123 -61 -164 -80 -54 l-10 58 -309
6 c-191 3 -316 -3 -328 -15 -27 -27 -187 -27 -203 -1 -7 11 -71 20 -143 20
-95 0 -128 7 -122 25 5 16 52 26 127 27 93 2 119 9 124 35 6 27 -10 33 -85 33
-118 0 -115 13 30 147 165 153 245 175 448 122z m822 -262 c17 -112 -1 -184
-76 -300 l-63 -97 -24 130 c-22 117 -21 136 12 190 20 33 48 104 61 157 29
114 65 82 90 -80z m-1251 -238 c0 -110 -56 -169 -159 -169 -56 0 -101 -9 -101
-20 0 -11 34 -20 75 -20 56 -1 67 -6 45 -20 -39 -25 -124 -25 -188 -1 l-51 19
55 121 54 120 135 0 c108 1 135 -5 135 -30z m760 -24 c0 -151 -203 -280 -320
-205 -22 14 -4 19 65 20 136 0 117 34 -25 44 -139 10 -157 23 -173 123 l-12
73 232 0 233 0 0 -55z m-701 -159 c-33 -95 -59 -181 -59 -190 0 -9 59 -16 131
-16 115 0 131 5 125 35 -5 26 -26 35 -82 35 -93 0 -95 53 -4 73 58 12 58 13
13 28 -35 11 -43 24 -34 57 7 23 17 67 24 98 16 70 52 60 68 -20 61 -296 423
-328 560 -51 46 95 53 100 75 64 36 -57 32 -70 -67 -223 l-91 -141 44 -47 c25
-26 38 -55 30 -63 -8 -8 -27 1 -41 20 -39 54 -78 46 -48 -10 14 -25 26 -58 26
-75 1 -39 21 -38 137 8 206 82 275 -100 108 -283 -52 -57 -115 -57 -214 0 -98
56 -106 47 -107 -130 -1 -153 27 -232 105 -303 154 -140 -179 -369 -506 -348
-244 16 -326 91 -263 241 71 169 14 314 -215 545 -188 191 -218 243 -217 380
2 140 33 219 78 199 172 -75 382 36 416 221 8 38 25 70 40 70 19 0 11 -46 -32
-174z m-480 125 c16 -19 18 -40 5 -62 -15 -29 -22 -24 -40 29 -23 65 -5 82 35
33z m1740 -256 c2 -25 -37 -17 -121 26 -43 22 -74 49 -68 59 12 19 187 -60
189 -85z m-1794 -742 c26 -26 59 -51 72 -55 20 -7 20 -29 4 -98 -31 -136 -47
-535 -26 -663 20 -122 -15 -191 -85 -164 -36 13 -36 18 -9 68 28 53 4 92 -121
197 l-103 87 -56 -41 -55 -41 10 50 c12 65 -64 147 -137 147 -74 0 -144 -61
-144 -125 0 -56 -103 -173 -129 -147 -28 27 99 233 248 403 169 194 150 183
214 119 139 -139 352 35 225 183 l-48 55 43 35 c52 44 42 45 97 -10z m-114
-122 c55 -83 -29 -173 -131 -141 -78 25 -86 82 -18 138 76 65 108 65 149 3z
m248 -130 c-15 -116 -14 -248 1 -445 23 -284 18 -345 -19 -248 -51 132 -42
701 12 842 24 64 26 13 6 -149z m-576 -334 c34 -30 52 -107 26 -107 -6 0 -38
14 -71 31 -33 17 -78 25 -101 18 -35 -11 -38 -8 -19 27 37 69 109 82 165 31z
m-377 -327 c-6 -22 -19 -40 -29 -40 -32 0 -44 63 -16 81 38 23 57 6 45 -41z
m762 -137 c13 -20 -43 -103 -69 -103 -27 0 -23 68 5 96 28 28 50 31 64 7z
m272 -108 c-1 -42 -34 -81 -57 -67 -16 10 -15 25 2 53 28 44 55 51 55 14z"/>
<path d="M2889 2879 c-17 -27 6 -119 30 -119 22 0 21 117 -1 131 -8 5 -21 0
-29 -12z"/>
<path d="M3194 2861 c-185 -36 -124 -98 66 -67 71 11 131 12 150 1 63 -36 107
3 53 46 -50 41 -131 46 -269 20z"/>
<path d="M2530 2640 c-7 -11 -3 -20 7 -20 11 0 23 -20 27 -45 8 -59 102 -64
113 -6 12 64 -113 125 -147 71z"/>
<path d="M3150 2640 c-7 -11 -3 -20 7 -20 11 0 23 -20 27 -45 8 -59 102 -64
113 -6 12 64 -113 125 -147 71z"/>
<path d="M2900 2150 c0 -34 9 -50 25 -45 14 5 25 25 25 45 0 20 -11 40 -25 45
-16 5 -25 -11 -25 -45z"/>
<path d="M3016 2190 c-16 -17 6 -110 26 -110 10 0 18 27 18 60 0 55 -18 75
-44 50z"/>
<path d="M2791 2128 c-14 -58 -5 -79 28 -59 25 16 28 111 3 111 -10 0 -24 -24
-31 -52z"/>
<path d="M2702 2123 c-27 -49 -29 -103 -4 -103 21 0 52 117 36 133 -6 6 -20
-8 -32 -30z"/>
<path d="M3120 2122 c0 -53 20 -102 42 -102 21 0 24 62 6 108 -17 44 -48 40
-48 -6z"/>
<path d="M2596 2082 c-19 -27 -29 -57 -23 -67 18 -30 72 36 64 78 -7 33 -11
32 -41 -11z"/>
<path d="M2932 2022 c-23 -25 -75 -45 -144 -53 -163 -20 -163 -57 -1 -44 73 6
138 2 145 -8 18 -29 52 4 39 38 -7 18 -1 39 13 48 18 11 19 22 4 37 -15 15
-31 9 -56 -18z"/>
<path d="M2403 2022 c-19 -12 -21 -21 -5 -31 28 -17 102 5 102 30 0 24 -61 24
-97 1z"/>
<path d="M3300 2016 c0 -36 40 -76 76 -76 38 0 21 41 -32 76 -38 25 -44 25
-44 0z"/>
<path d="M3601 1985 c-86 -44 -108 -93 -33 -74 33 8 52 5 52 -9 0 -12 -22 -22
-50 -22 -60 0 -64 -22 -11 -69 24 -22 53 -30 80 -21 56 17 53 56 -4 40 -39
-10 -40 -9 -10 10 40 25 47 92 10 106 -14 6 4 17 40 25 36 8 65 22 65 32 0 28
-65 20 -139 -18z"/>
<path d="M2461 1941 c-17 -10 -24 -25 -17 -32 18 -17 96 9 96 32 0 24 -41 24
-79 0z"/>
<path d="M3200 1903 c0 -31 77 -87 100 -73 16 10 12 25 -12 52 -35 39 -88 52
-88 21z"/>
<path d="M3120 1833 c0 -27 61 -93 87 -93 27 0 12 55 -24 87 -44 40 -63 42
-63 6z"/>
<path d="M2619 1778 c-12 -23 -16 -47 -9 -55 14 -13 70 52 70 81 0 32 -39 15
-61 -26z"/>
<path d="M3040 1781 c0 -10 22 -44 49 -75 57 -64 72 -25 20 50 -32 45 -69 59
-69 25z"/>
<path d="M2932 1764 c-5 -9 9 -48 32 -85 50 -82 72 -49 27 40 -34 64 -42 71
-59 45z"/>
<path d="M2733 1747 c-7 -8 -13 -35 -13 -62 0 -66 48 -47 56 22 6 50 -14 69
-43 40z"/>
<path d="M2844 1679 c3 -36 18 -70 32 -75 19 -6 25 10 19 58 -4 36 -19 69 -33
74 -17 6 -23 -11 -18 -57z"/>
<path d="M3020 1557 c-27 -11 -88 -16 -135 -11 -63 7 -85 2 -85 -18 0 -27 56
-39 159 -32 64 4 161 44 161 66 0 23 -37 21 -100 -5z"/>
<path d="M2021 1187 c-73 -93 -13 -207 110 -207 82 0 149 58 149 130 0 125
-179 178 -259 77z m188 -18 c59 -60 13 -149 -76 -149 -56 0 -93 36 -93 90 0
86 105 122 169 59z"/>
<path d="M3603 1091 c-165 -280 -762 -356 -965 -123 -58 67 -90 45 -39 -27
106 -149 495 -202 750 -102 126 50 331 229 331 290 0 52 -34 35 -77 -38z"/>
<path d="M3929 234 c-27 -71 0 -224 41 -230 37 -5 39 3 30 119 -10 119 -46
176 -71 111z"/>
</g>
</svg>
