<?xml version="1.0" standalone="no"?>
<!DOCTYPE svg PUBLIC "-//W3C//DTD SVG 20010904//EN"
 "http://www.w3.org/TR/2001/REC-SVG-20010904/DTD/svg10.dtd">
<svg version="1.0" xmlns="http://www.w3.org/2000/svg"
 width="300.000000pt" height="346.000000pt" viewBox="0 0 300.000000 346.000000"
 preserveAspectRatio="xMidYMid meet">
<metadata>
Created by potrace 1.10, written by Peter Selinger 2001-2011
</metadata>
<g transform="translate(0.000000,346.000000) scale(0.100000,-0.100000)"
fill="#000000" stroke="none">
<path d="M1551 3399 c-76 -15 -142 -40 -246 -92 -87 -45 -113 -65 -215 -166
-185 -184 -296 -336 -370 -509 -102 -237 -99 -423 7 -553 91 -111 244 -199
508 -293 83 -29 150 -57 150 -61 0 -5 -49 -35 -110 -68 -195 -104 -316 -207
-468 -396 -113 -142 -143 -187 -373 -563 -91 -150 -182 -295 -201 -321 -22
-29 -46 -83 -63 -140 -31 -104 -49 -237 -31 -237 11 0 13 5 30 110 23 137 17
130 143 179 103 41 121 45 203 45 112 1 189 -22 248 -74 l42 -38 -38 -10 c-31
-9 -45 -7 -83 10 -53 23 -143 33 -164 19 -21 -15 -1 -27 61 -35 58 -8 79 -15
79 -27 0 -4 -35 -34 -78 -65 -99 -73 -134 -114 -97 -114 9 0 18 6 21 14 7 17
137 95 228 136 91 41 242 76 416 95 306 34 388 64 503 180 65 65 84 71 62 19
-25 -62 -22 -67 38 -59 28 4 84 17 122 30 39 13 72 21 74 19 3 -2 -8 -18 -24
-34 -32 -33 -27 -52 8 -30 107 67 115 58 27 -34 -33 -35 -60 -66 -60 -70 0 -3
22 5 50 19 27 14 53 25 57 25 4 0 -13 -20 -37 -45 -47 -48 -44 -54 14 -30 46
19 46 6 1 -34 -52 -45 -136 -85 -266 -124 -63 -20 -139 -44 -169 -54 l-55 -18
64 -3 c53 -3 87 4 190 37 69 23 153 56 186 74 68 38 119 101 117 144 -9 197
-7 248 10 251 19 4 58 -58 89 -139 27 -70 36 -256 16 -321 -12 -37 -12 -48 -3
-48 24 0 38 56 43 170 6 160 5 174 -18 232 -21 53 -21 62 2 53 58 -23 140
-261 97 -278 -10 -4 -9 -8 2 -16 11 -8 18 -6 28 7 30 39 -27 236 -85 297 -18
18 -54 40 -81 49 -27 9 -66 31 -86 49 -33 29 -38 42 -61 142 -58 265 -95 518
-95 662 l0 51 73 11 c39 7 82 13 95 15 67 10 304 -449 441 -850 27 -82 52
-160 55 -174 2 -14 16 -52 30 -84 14 -32 29 -84 32 -115 3 -31 12 -78 20 -105
8 -27 14 -65 14 -83 0 -18 4 -33 9 -33 16 0 19 69 5 116 -8 26 -14 62 -14 80
0 18 -13 72 -29 121 -16 48 -34 117 -41 153 -6 36 -36 137 -65 225 -122 366
-276 661 -427 813 -39 39 -58 66 -52 72 5 5 99 21 209 35 242 32 308 46 394
87 89 42 197 150 239 238 117 247 66 613 -144 1035 -78 156 -159 273 -217 312
-67 45 -177 68 -276 58 -133 -14 -191 -11 -256 14 -118 45 -331 64 -454 40z
m659 -490 c52 -29 72 -69 78 -153 8 -127 -27 -192 -106 -203 -38 -5 -42 -3
-65 34 -27 43 -68 67 -134 78 -49 8 -94 -2 -72 -16 8 -5 27 -9 42 -9 36 0 101
-34 121 -62 22 -31 21 -132 -3 -183 -22 -48 -44 -69 -94 -90 -46 -19 -83 -19
-138 0 -90 32 -122 93 -100 187 14 62 5 78 -50 98 -23 8 -45 22 -50 30 -4 8
-17 36 -29 63 -38 82 -116 126 -227 127 -73 0 -77 8 -35 59 22 27 33 32 50 27
27 -9 29 -26 3 -26 -28 0 -52 -11 -45 -21 3 -5 23 -9 45 -9 23 0 83 -14 135
-32 72 -24 97 -29 106 -20 9 9 5 19 -16 41 l-27 29 67 7 c38 4 131 20 208 35
177 36 283 38 336 9z m-720 -171 c139 -70 112 -249 -54 -370 -36 -26 -37 -28
-14 -28 53 0 145 88 185 178 20 47 26 52 46 47 44 -14 50 -27 36 -92 -11 -56
-11 -63 11 -107 27 -57 75 -91 148 -107 86 -18 189 7 233 57 26 30 48 79 55
123 7 44 16 55 52 64 26 6 27 4 6 -28 -16 -24 -15 -25 6 -25 12 0 41 20 68 45
64 63 119 59 148 -10 41 -98 -12 -184 -140 -231 -37 -13 -75 -24 -85 -24 -10
0 -30 -9 -44 -20 -14 -11 -46 -24 -72 -29 -56 -10 -79 -31 -158 -141 -81 -114
-127 -161 -217 -220 -95 -63 -120 -64 -227 -10 -59 29 -97 58 -151 114 -80 82
-114 146 -137 253 -15 70 -20 217 -9 271 l6 30 44 -34 c48 -36 110 -57 152
-52 24 3 20 7 -33 31 -111 52 -148 112 -125 208 22 90 72 128 170 129 39 0 70
-7 100 -22z m581 -655 c-7 -26 -30 -90 -52 -142 -39 -90 -43 -111 -19 -96 15
9 75 130 90 183 14 46 40 77 40 47 0 -24 -35 -158 -64 -242 -25 -75 -22 -92
14 -73 26 14 103 117 138 185 23 44 27 47 30 25 16 -100 -134 -296 -302 -394
-37 -22 -71 -47 -77 -57 -28 -53 21 -477 97 -827 13 -63 21 -125 18 -138 -8
-32 -61 -72 -119 -89 -51 -16 -75 -11 -75 15 0 20 -37 70 -52 70 -5 0 -41 -30
-79 -67 -38 -36 -71 -64 -73 -62 -6 7 -26 280 -36 504 -12 271 -13 539 0 603
22 116 78 192 210 282 74 51 97 74 150 150 35 50 65 89 66 87 2 -2 -6 -32 -17
-66 -21 -62 -21 -79 2 -66 10 7 83 155 103 209 13 37 18 6 7 -41z m-864 -572
c30 -39 96 -76 195 -108 45 -14 86 -31 90 -37 4 -6 8 -74 8 -151 0 -205 24
-614 46 -786 l6 -45 -58 -26 c-33 -15 -77 -31 -99 -36 -82 -21 -230 -34 -309
-27 -50 4 -108 2 -149 -5 -66 -12 -70 -11 -120 15 -90 47 -158 66 -258 72
-130 8 -207 -11 -313 -77 l-36 -22 10 28 c6 15 28 46 48 68 53 57 147 197 296
436 154 249 229 354 341 482 88 100 248 248 269 248 7 0 22 -13 33 -29z"/>
<path d="M1800 2771 c0 -36 27 -52 78 -45 70 9 168 -13 240 -52 70 -39 84 -28
30 23 -65 61 -162 93 -283 93 -58 0 -65 -2 -65 -19z"/>
<path d="M1797 2532 c-9 -10 -17 -33 -17 -50 0 -44 31 -43 66 3 14 19 33 35
41 35 8 0 13 6 11 13 -7 21 -82 21 -101 -1z"/>
<path d="M1449 2647 c-39 -26 -59 -71 -41 -89 16 -16 59 5 74 37 6 14 17 25
25 25 20 0 16 28 -6 39 -14 8 -27 5 -52 -12z"/>
<path d="M1375 2140 c-11 -18 51 -70 83 -70 36 0 63 27 41 41 -8 5 -23 9 -35
9 -11 0 -29 7 -40 15 -23 17 -40 19 -49 5z"/>
<path d="M1080 1370 c0 -7 3 -10 7 -7 3 4 3 10 0 14 -4 3 -7 0 -7 -7z"/>
<path d="M1063 1303 c4 -3 10 -3 14 0 3 4 0 7 -7 7 -7 0 -10 -3 -7 -7z"/>
<path d="M1396 1216 c-20 -32 -38 -110 -29 -133 13 -36 45 -73 63 -73 32 0 37
89 7 127 -5 7 -6 32 -3 58 6 36 4 45 -7 45 -8 0 -22 -11 -31 -24z"/>
<path d="M1406 855 c-28 -30 -40 -81 -30 -129 8 -45 34 -68 71 -64 39 4 41 36
7 93 -26 45 -26 48 -10 81 20 42 20 44 1 44 -9 0 -27 -11 -39 -25z"/>
<path d="M950 1480 c0 -7 3 -10 7 -7 3 4 3 10 0 14 -4 3 -7 0 -7 -7z"/>
<path d="M2053 1413 c4 -3 10 -3 14 0 3 4 0 7 -7 7 -7 0 -10 -3 -7 -7z"/>
<path d="M2213 1413 c4 -3 10 -3 14 0 3 4 0 7 -7 7 -7 0 -10 -3 -7 -7z"/>
<path d="M2270 1360 c0 -7 3 -10 7 -7 3 4 3 10 0 14 -4 3 -7 0 -7 -7z"/>
<path d="M2110 1210 c0 -7 3 -10 7 -7 3 4 3 10 0 14 -4 3 -7 0 -7 -7z"/>
<path d="M2386 223 c11 -36 11 -133 0 -155 -6 -13 -4 -18 7 -18 21 0 27 22 27
93 0 77 -8 107 -27 107 -12 0 -13 -6 -7 -27z"/>
</g>
</svg>
